<svg width="64" height="42" viewBox="0 0 64 42" fill="none" xmlns="http://www.w3.org/2000/svg">
<path fill-rule="evenodd" clip-rule="evenodd" d="M0 21C0 20.3812 0.2408 19.7878 0.669427 19.3503C1.09805 18.9128 1.6794 18.667 2.28557 18.667H56.193L41.8076 3.98772C41.3784 3.54965 41.1373 2.95549 41.1373 2.33595C41.1373 1.71642 41.3784 1.12226 41.8076 0.684184C42.2368 0.246108 42.8189 1.45967e-08 43.4258 0C44.0327 -1.45967e-08 44.6148 0.246108 45.044 0.684184L63.3285 19.3482C63.5414 19.5649 63.7102 19.8224 63.8255 20.1058C63.9407 20.3893 64 20.6931 64 21C64 21.3069 63.9407 21.6107 63.8255 21.8942C63.7102 22.1776 63.5414 22.4351 63.3285 22.6518L45.044 41.3158C44.6148 41.7539 44.0327 42 43.4258 42C42.8189 42 42.2368 41.7539 41.8076 41.3158C41.3784 40.8777 41.1373 40.2836 41.1373 39.664C41.1373 39.0445 41.3784 38.4504 41.8076 38.0123L56.193 23.333H2.28557C1.6794 23.333 1.09805 23.0872 0.669427 22.6497C0.2408 22.2122 0 21.6188 0 21V21Z" fill="black"/>
</svg>
