<svg width="75" height="75" viewBox="0 0 75 75" fill="none" xmlns="http://www.w3.org/2000/svg">
<path d="M36.3826 17.867H18.9141C18.7794 17.8669 18.646 17.8934 18.5216 17.9449C18.3971 17.9964 18.2841 18.0719 18.1888 18.1672C18.0936 18.2624 18.0181 18.3755 17.9666 18.4999C17.9151 18.6243 17.8886 18.7577 17.8887 18.8924V36.3615C17.8887 36.6335 17.9967 36.8943 18.189 37.0866C18.3813 37.2789 18.6421 37.3869 18.9141 37.3869H36.3826C36.6546 37.3869 36.9154 37.2789 37.1077 37.0866C37.3 36.8943 37.408 36.6335 37.408 36.3615V18.8924C37.4081 18.7577 37.3816 18.6243 37.3301 18.4999C37.2786 18.3755 37.2031 18.2624 37.1078 18.1672C37.0126 18.0719 36.8995 17.9964 36.7751 17.9449C36.6507 17.8934 36.5173 17.8669 36.3826 17.867ZM35.3572 23.2254H31.0289V19.9178H35.3572V23.2254ZM28.9781 19.9178V26.2565H26.318V19.9178H28.9781ZM24.2672 19.9178V23.2254H19.9395V19.9178H24.2672ZM19.9395 35.3361V25.2762H24.2672V27.2818C24.2672 27.5538 24.3752 27.8146 24.5675 28.0069C24.7598 28.1992 25.0206 28.3072 25.2926 28.3072H30.0035C30.2755 28.3072 30.5363 28.1992 30.7286 28.0069C30.9209 27.8146 31.0289 27.5538 31.0289 27.2818V25.2762H35.3572V35.3361H19.9395Z" fill="#BCA169"/>
<path d="M40.7965 14.4785C38.1945 11.8788 34.88 10.1089 31.2722 9.39251C27.6644 8.67614 23.9252 9.0455 20.5272 10.4539C17.1293 11.8622 14.2252 14.2464 12.182 17.305C10.1389 20.3636 9.04834 23.9592 9.04834 27.6375C9.04834 31.3157 10.1389 34.9114 12.182 37.97C14.2252 41.0286 17.1293 43.4127 20.5272 44.8211C23.9252 46.2295 27.6644 46.5988 31.2722 45.8825C34.88 45.1661 38.1945 43.3962 40.7965 40.7965C44.2809 37.3035 46.2376 32.5712 46.2376 27.6375C46.2376 22.7038 44.2809 17.9715 40.7965 14.4785ZM39.3464 39.3463C36.6375 42.0547 33.0734 43.7401 29.2612 44.1154C25.449 44.4906 21.6247 43.5324 18.4398 41.4041C15.2549 39.2758 12.9065 36.109 11.7947 32.4433C10.6829 28.7776 10.8765 24.8398 12.3425 21.3008C13.8085 17.7619 16.4562 14.8407 19.8346 13.0351C23.2129 11.2294 27.1128 10.651 30.8697 11.3984C34.6267 12.1457 38.0083 14.1726 40.4384 17.1337C42.8685 20.0948 44.1967 23.8069 44.1967 27.6375C44.2027 29.8129 43.777 31.9679 42.9445 33.9778C42.1119 35.9876 40.8889 37.8123 39.3464 39.3463Z" fill="#BCA169"/>
<path d="M70.4227 61.217L49.282 40.0781C52.2914 34.8377 53.2948 28.6825 52.1055 22.7576C50.9162 16.8327 47.6153 11.5415 42.8167 7.86833C38.0181 4.19513 32.0487 2.38999 26.0188 2.78873C19.9889 3.18747 14.3091 5.76294 10.036 10.036C5.76294 14.3091 3.18747 19.9889 2.78873 26.0188C2.38999 32.0487 4.19513 38.0181 7.86833 42.8167C11.5415 47.6152 16.8327 50.9162 22.7576 52.1055C28.6825 53.2947 34.8377 52.2914 40.0781 49.282L61.2188 70.4227C62.4395 71.6434 64.0952 72.3292 65.8216 72.3292C67.548 72.3292 69.2037 71.6434 70.4244 70.4227C71.6452 69.2019 72.331 67.5462 72.331 65.8198C72.331 64.0934 71.6452 62.4377 70.4244 61.217H70.4227ZM11.4334 43.8416C8.22854 40.6367 6.04601 36.5535 5.1618 32.1082C4.27759 27.663 4.73141 23.0553 6.46587 18.868C8.20033 14.6806 11.1375 11.1016 14.9061 8.58358C18.6746 6.06554 23.1051 4.72154 27.6375 4.72154C32.1699 4.72154 36.6004 6.06554 40.3689 8.58358C44.1375 11.1016 47.0747 14.6806 48.8091 18.868C50.5436 23.0553 50.9974 27.663 50.1132 32.1082C49.229 36.5535 47.0465 40.6367 43.8416 43.8416C39.5407 48.1329 33.7131 50.5429 27.6375 50.5429C21.5619 50.5429 15.7343 48.1329 11.4334 43.8416ZM68.9725 68.973C68.136 69.809 67.0018 70.2786 65.8192 70.2786C64.6367 70.2786 63.5025 69.809 62.666 68.973L41.8512 48.157C44.3192 46.4562 46.4562 44.3192 48.157 41.8512L68.973 62.6666C69.809 63.5031 70.2786 64.6372 70.2786 65.8198C70.2786 67.0024 69.809 68.1366 68.973 68.973H68.9725Z" fill="#BCA169"/>
<path d="M58.6929 55.0482C58.5977 54.953 58.4847 54.8775 58.3602 54.8259C58.2358 54.7744 58.1025 54.7479 57.9678 54.7479C57.8332 54.7479 57.6998 54.7744 57.5754 54.8259C57.451 54.8775 57.3379 54.953 57.2427 55.0482C57.1475 55.1434 57.072 55.2565 57.0204 55.3809C56.9689 55.5053 56.9424 55.6386 56.9424 55.7733C56.9424 55.908 56.9689 56.0413 57.0204 56.1657C57.072 56.2901 57.1475 56.4032 57.2427 56.4984L64.1732 63.4289C64.3655 63.6214 64.6264 63.7297 64.8986 63.7299C65.1707 63.73 65.4317 63.6221 65.6243 63.4298C65.8168 63.2375 65.9251 62.9765 65.9253 62.7044C65.9254 62.4323 65.8175 62.1712 65.6252 61.9787L58.6929 55.0482Z" fill="#BCA169"/>
<path d="M53.2076 49.5627C53.0153 49.3704 52.7544 49.2624 52.4825 49.2624C52.2105 49.2624 51.9497 49.3704 51.7574 49.5627C51.5651 49.755 51.457 50.0159 51.457 50.2878C51.457 50.5598 51.5651 50.8206 51.7574 51.0129L53.8439 53.0995C53.9385 53.1974 54.0517 53.2755 54.1768 53.3292C54.3019 53.3829 54.4365 53.4112 54.5726 53.4123C54.7088 53.4135 54.8438 53.3875 54.9698 53.3359C55.0958 53.2843 55.2103 53.2082 55.3065 53.1119C55.4028 53.0156 55.4789 52.9011 55.5304 52.775C55.5819 52.649 55.6079 52.514 55.6067 52.3778C55.6054 52.2417 55.5771 52.1071 55.5234 51.9821C55.4696 51.857 55.3915 51.7438 55.2935 51.6493L53.2076 49.5627Z" fill="#BCA169"/>
</svg>
