<svg width="66" height="66" viewBox="0 0 66 66" fill="none" xmlns="http://www.w3.org/2000/svg">
<path d="M60.4997 36.0698L48.6043 40.1628L43.8078 37.4128V33V28.6512L48.6043 25.9012L60.4997 29.9942C61.3311 30.314 62.2904 29.8023 62.5462 28.9709C62.866 28.1395 62.3543 27.1802 61.5229 26.9244L52.3136 23.7907L60.9474 18.8023C61.7148 18.3547 61.9706 17.3314 61.5229 16.564C61.0753 15.7965 60.052 15.5407 59.2846 15.9884L50.6508 20.9767L52.5055 11.4477C52.6974 10.5523 52.1218 9.72093 51.2264 9.52907C50.3311 9.33721 49.4997 9.91279 49.3078 10.8081L46.8776 23.1512L42.0811 25.9012L38.4357 23.7907L38.3718 23.7267L34.6625 21.5523V16.0523L44.1276 7.80233C44.8311 7.22674 44.895 6.20349 44.2555 5.5C43.6799 4.79651 42.6567 4.73256 41.9532 5.37209L34.6625 11.7674V1.66279C34.6625 0.767442 33.959 0 32.9997 0C32.1043 0 31.3369 0.703488 31.3369 1.66279V11.6395L24.0462 5.30814C23.3427 4.73256 22.3195 4.79651 21.7439 5.43605C21.1683 6.13953 21.2322 7.16279 21.8718 7.73837L31.3369 15.9884V21.4884L27.6276 23.6628L23.9183 25.8372L19.1218 23.0872L16.6916 10.7442C16.4997 9.84884 15.6683 9.27326 14.7729 9.46512C13.8776 9.65698 13.302 10.4884 13.4939 11.3837L15.3485 20.9128L6.71481 15.9244C5.94737 15.4767 4.92411 15.7326 4.47644 16.5C4.02876 17.2674 4.28458 18.2907 5.05202 18.7384L13.6857 23.7267L4.47644 26.8605C3.64504 27.1802 3.13341 28.0756 3.45318 28.907C3.77295 29.7384 4.6683 30.25 5.49969 29.9302L17.395 25.8372L22.1916 28.5872V33V37.3488H22.2555L17.459 40.0988L5.56365 36.0058C4.73225 35.686 3.77295 36.1977 3.51713 37.0291C3.19737 37.8605 3.70899 38.8198 4.54039 39.0756L13.7497 42.2093L5.11597 47.1977C4.34853 47.6454 4.09271 48.6686 4.54039 49.4361C4.98806 50.2035 6.01132 50.4593 6.77876 50.0116L15.4125 45.0233L13.5578 54.5523C13.366 55.4477 13.9416 56.2791 14.8369 56.4709C15.7322 56.6628 16.5636 56.0872 16.7555 55.1919L19.1857 42.8488L23.9822 40.0988L27.7555 42.2733L31.4648 44.4477V49.9477L21.9997 58.1977C21.2962 58.7733 21.2322 59.7965 21.8718 60.5C22.4474 61.2035 23.4706 61.2674 24.1741 60.6279L31.4648 54.2326V64.3372C31.4648 65.2326 32.1683 66 33.1276 66C34.0229 66 34.7904 65.2965 34.7904 64.3372V54.3605L42.0811 60.7558C42.7846 61.3314 43.8078 61.2674 44.3834 60.6279C44.959 59.9244 44.895 58.9012 44.2555 58.3256L34.6625 50.0116V44.5116L38.3718 42.3372L42.0811 40.1628L46.8776 42.9128L49.3078 55.2558C49.4997 56.1512 50.3311 56.7267 51.2264 56.5349C52.1218 56.343 52.6974 55.5116 52.5055 54.6163L50.6508 45.0872L59.2846 50.0756C60.052 50.5233 61.0753 50.2674 61.5229 49.5C61.9706 48.7326 61.7148 47.7093 60.9474 47.2616L52.3136 42.2733L61.5229 39.1395C62.3543 38.8198 62.866 37.9244 62.5462 37.093C62.2264 36.2616 61.3311 35.75 60.4997 36.0698ZM40.3543 33V37.3488L36.645 39.5233L32.9997 41.6337L29.2264 39.4593L25.5171 37.2849V33V28.6512L29.2264 26.4767L32.9357 24.3023L36.645 26.4767L36.709 26.5407L40.3543 28.6512V33Z" fill="#BCA169"/>
</svg>
