<svg width="100" height="64" viewBox="0 0 100 64" fill="none" xmlns="http://www.w3.org/2000/svg">
<path d="M97.7769 36.1928H94.1332V13.5436C94.1333 13.3533 94.0959 13.1648 94.0231 12.9889C93.9503 12.813 93.8436 12.6532 93.709 12.5186C93.5744 12.384 93.4146 12.2773 93.2387 12.2045C93.0628 12.1317 92.8743 12.0943 92.684 12.0944H87.7011V1.93164C87.7011 1.54728 87.5484 1.17867 87.2767 0.906889C87.0049 0.635107 86.6363 0.482422 86.2519 0.482422H74.8627C74.6021 0.482482 74.3463 0.552818 74.1223 0.686024C73.8983 0.819229 73.7144 1.01037 73.5899 1.23933L67.6903 12.0944H62.1195C61.7352 12.0944 61.3665 12.2471 61.0948 12.5189C60.823 12.7906 60.6703 13.1593 60.6703 13.5436V43.9035H51.4491V22.2215C51.4489 21.8372 51.2962 21.4688 51.0244 21.197C50.7527 20.9253 50.3842 20.7725 49.9999 20.7723H12.3484C11.9641 20.7725 11.5956 20.9253 11.3239 21.197C11.0521 21.4688 10.8994 21.8372 10.8992 22.2215V36.1928H2.2229C1.96509 36.1927 1.71192 36.2613 1.48949 36.3917C1.26706 36.522 1.08342 36.7093 0.957522 36.9343C0.83162 37.1593 0.768008 37.4138 0.773249 37.6715C0.778489 37.9293 0.852391 38.1809 0.987333 38.4006L11.7405 55.9229C13.1717 58.2368 15.1685 60.1482 17.5427 61.4769C19.9169 62.8057 22.5903 63.508 25.311 63.5176H97.772C98.1563 63.5176 98.5249 63.365 98.7967 63.0932C99.0685 62.8214 99.2212 62.4528 99.2212 62.0684V37.6387C99.2203 37.2558 99.0679 36.8888 98.7973 36.6179C98.5267 36.347 98.1599 36.1941 97.7769 36.1928ZM75.7248 3.38086H84.8052V12.0944H70.9896L75.7248 3.38086ZM63.5687 14.9928H91.2405V36.1928H75.8374C75.5834 36.193 75.3339 36.2598 75.1139 36.3867C74.8938 36.5136 74.711 36.696 74.5836 36.9158L70.5258 43.9035H63.5696L63.5687 14.9928ZM40.9195 43.9035L37.9747 39.0913H48.5507V43.9035H40.9195ZM13.7976 36.1928V31.3814H29.7249V36.1928H13.7976ZM32.6234 31.3814H48.5507V36.1928H32.6234V31.3814ZM48.5507 28.483H32.6234V23.6708H48.5507V28.483ZM29.7249 23.6708V28.483H13.7976V23.6708H29.7249ZM96.3277 60.6192H25.3127C23.0879 60.6108 20.9019 60.0362 18.9606 58.9496C17.0192 57.863 15.3864 56.3002 14.2158 54.4083L4.81244 39.0913H34.5761L38.8716 46.1088C39.0007 46.3207 39.1822 46.4958 39.3986 46.6172C39.615 46.7386 39.859 46.8022 40.1071 46.8019H71.3597C71.6138 46.8018 71.8634 46.7349 72.0835 46.6078C72.3035 46.4808 72.4863 46.2981 72.6135 46.0782L76.6655 39.0913H96.326L96.3277 60.6192Z" fill="#BCA169"/>
<path d="M75.8696 22.7027H78.9337C79.3181 22.7027 79.6867 22.55 79.9585 22.2782C80.2302 22.0065 80.3829 21.6378 80.3829 21.2535C80.3829 20.8691 80.2302 20.5005 79.9585 20.2287C79.6867 19.9569 79.3181 19.8043 78.9337 19.8043H75.8696C75.4853 19.8043 75.1167 19.9569 74.8449 20.2287C74.5731 20.5005 74.4204 20.8691 74.4204 21.2535C74.4204 21.6378 74.5731 22.0065 74.8449 22.2782C75.1167 22.55 75.4853 22.7027 75.8696 22.7027Z" fill="#BCA169"/>
<path d="M67.728 22.7027H70.7921C71.1765 22.7027 71.5451 22.55 71.8168 22.2782C72.0886 22.0065 72.2413 21.6378 72.2413 21.2535C72.2413 20.8691 72.0886 20.5005 71.8168 20.2287C71.5451 19.9569 71.1765 19.8043 70.7921 19.8043H67.728C67.3437 19.8043 66.9751 19.9569 66.7033 20.2287C66.4315 20.5005 66.2788 20.8691 66.2788 21.2535C66.2788 21.6378 66.4315 22.0065 66.7033 22.2782C66.9751 22.55 67.3437 22.7027 67.728 22.7027Z" fill="#BCA169"/>
<path d="M84.0117 22.7027H87.0758C87.4601 22.7027 87.8288 22.55 88.1005 22.2782C88.3723 22.0065 88.525 21.6378 88.525 21.2535C88.525 20.8691 88.3723 20.5005 88.1005 20.2287C87.8288 19.9569 87.4601 19.8043 87.0758 19.8043H84.0117C83.6274 19.8043 83.2587 19.9569 82.987 20.2287C82.7152 20.5005 82.5625 20.8691 82.5625 21.2535C82.5625 21.6378 82.7152 22.0065 82.987 22.2782C83.2587 22.55 83.6274 22.7027 84.0117 22.7027Z" fill="#BCA169"/>
<path d="M75.8696 28.1658H78.9337C79.3181 28.1658 79.6867 28.0131 79.9585 27.7413C80.2302 27.4695 80.3829 27.1009 80.3829 26.7166C80.3829 26.3322 80.2302 25.9636 79.9585 25.6918C79.6867 25.42 79.3181 25.2673 78.9337 25.2673H75.8696C75.4853 25.2673 75.1167 25.42 74.8449 25.6918C74.5731 25.9636 74.4204 26.3322 74.4204 26.7166C74.4204 27.1009 74.5731 27.4695 74.8449 27.7413C75.1167 28.0131 75.4853 28.1658 75.8696 28.1658Z" fill="#BCA169"/>
<path d="M67.728 28.1658H70.7921C71.1765 28.1658 71.5451 28.0131 71.8168 27.7413C72.0886 27.4695 72.2413 27.1009 72.2413 26.7166C72.2413 26.3322 72.0886 25.9636 71.8168 25.6918C71.5451 25.42 71.1765 25.2673 70.7921 25.2673H67.728C67.3437 25.2673 66.9751 25.42 66.7033 25.6918C66.4315 25.9636 66.2788 26.3322 66.2788 26.7166C66.2788 27.1009 66.4315 27.4695 66.7033 27.7413C66.9751 28.0131 67.3437 28.1658 67.728 28.1658Z" fill="#BCA169"/>
<path d="M84.0117 28.1658H87.0758C87.4601 28.1658 87.8288 28.0131 88.1005 27.7413C88.3723 27.4695 88.525 27.1009 88.525 26.7166C88.525 26.3322 88.3723 25.9636 88.1005 25.6918C87.8288 25.42 87.4601 25.2673 87.0758 25.2673H84.0117C83.6274 25.2673 83.2587 25.42 82.987 25.6918C82.7152 25.9636 82.5625 26.3322 82.5625 26.7166C82.5625 27.1009 82.7152 27.4695 82.987 27.7413C83.2587 28.0131 83.6274 28.1658 84.0117 28.1658Z" fill="#BCA169"/>
<path d="M72.2442 37.6421C72.244 37.2578 72.0913 36.8893 71.8195 36.6176C71.5478 36.3458 71.1793 36.1931 70.795 36.1929H67.731C67.3466 36.1929 66.978 36.3456 66.7062 36.6173C66.4344 36.8891 66.2817 37.2577 66.2817 37.6421C66.2817 38.0264 66.4344 38.3951 66.7062 38.6668C66.978 38.9386 67.3466 39.0913 67.731 39.0913H70.795C71.1794 39.0913 71.548 38.9386 71.8198 38.6668C72.0915 38.3951 72.2442 38.0264 72.2442 37.6421Z" fill="#BCA169"/>
<path d="M75.8696 33.629H78.9337C79.3181 33.629 79.6867 33.4763 79.9585 33.2045C80.2302 32.9327 80.3829 32.5641 80.3829 32.1798C80.3829 31.7954 80.2302 31.4268 79.9585 31.155C79.6867 30.8832 79.3181 30.7305 78.9337 30.7305H75.8696C75.4853 30.7305 75.1167 30.8832 74.8449 31.155C74.5731 31.4268 74.4204 31.7954 74.4204 32.1798C74.4204 32.5641 74.5731 32.9327 74.8449 33.2045C75.1167 33.4763 75.4853 33.629 75.8696 33.629Z" fill="#BCA169"/>
<path d="M67.728 33.629H70.7921C71.1765 33.629 71.5451 33.4763 71.8168 33.2045C72.0886 32.9327 72.2413 32.5641 72.2413 32.1798C72.2413 31.7954 72.0886 31.4268 71.8168 31.155C71.5451 30.8832 71.1765 30.7305 70.7921 30.7305H67.728C67.3437 30.7305 66.9751 30.8832 66.7033 31.155C66.4315 31.4268 66.2788 31.7954 66.2788 32.1798C66.2788 32.5641 66.4315 32.9327 66.7033 33.2045C66.9751 33.4763 67.3437 33.629 67.728 33.629Z" fill="#BCA169"/>
<path d="M84.0117 33.629H87.0758C87.4601 33.629 87.8288 33.4763 88.1005 33.2045C88.3723 32.9327 88.525 32.5641 88.525 32.1798C88.525 31.7954 88.3723 31.4268 88.1005 31.155C87.8288 30.8832 87.4601 30.7305 87.0758 30.7305H84.0117C83.6274 30.7305 83.2587 30.8832 82.987 31.155C82.7152 31.4268 82.5625 31.7954 82.5625 32.1798C82.5625 32.5641 82.7152 32.9327 82.987 33.2045C83.2587 33.4763 83.6274 33.629 84.0117 33.629Z" fill="#BCA169"/>
<path d="M90.0324 53.9942H78.1074C77.7231 53.9942 77.3544 54.1469 77.0827 54.4187C76.8109 54.6905 76.6582 55.0591 76.6582 55.4434C76.6582 55.8278 76.8109 56.1964 77.0827 56.4682C77.3544 56.74 77.7231 56.8926 78.1074 56.8926H90.0324C90.4168 56.8926 90.7854 56.74 91.0572 56.4682C91.329 56.1964 91.4816 55.8278 91.4816 55.4434C91.4816 55.0591 91.329 54.6905 91.0572 54.4187C90.7854 54.1469 90.4168 53.9942 90.0324 53.9942Z" fill="#BCA169"/>
<path d="M72.033 53.9942H68.4331C68.0487 53.9942 67.6801 54.1469 67.4083 54.4187C67.1366 54.6905 66.9839 55.0591 66.9839 55.4434C66.9839 55.8278 67.1366 56.1964 67.4083 56.4682C67.6801 56.74 68.0487 56.8926 68.4331 56.8926H72.033C72.4173 56.8926 72.7859 56.74 73.0577 56.4682C73.3295 56.1964 73.4822 55.8278 73.4822 55.4434C73.4822 55.0591 73.3295 54.6905 73.0577 54.4187C72.7859 54.1469 72.4173 53.9942 72.033 53.9942Z" fill="#BCA169"/>
</svg>
