<svg width="339" height="55" viewBox="0 0 339 55" fill="none" xmlns="http://www.w3.org/2000/svg">
<path d="M31.7757 22.6935V23.6935H32.9006L32.7688 22.5763L31.7757 22.6935ZM24.7642 22.6935L23.774 22.8333L23.8955 23.6935H24.7642V22.6935ZM23.9798 20.2763L23.1044 20.7597L23.1076 20.7653L23.9798 20.2763ZM22.4591 18.4514L21.8295 19.2283L21.8295 19.2283L22.4591 18.4514ZM20.314 17.2988L19.9978 18.2475L20.0016 18.2487L20.314 17.2988ZM13.2706 18.1632L13.822 18.9975L13.8269 18.9942L13.2706 18.1632ZM10.3411 21.813L11.2577 22.2129L11.2587 22.2107L10.3411 21.813ZM10.3411 33.4988L9.42451 33.8987L9.42679 33.9038L10.3411 33.4988ZM13.2866 37.1006L12.7451 37.9413L12.7451 37.9413L13.2866 37.1006ZM20.234 37.949L19.9408 36.993L19.9372 36.9941L20.234 37.949ZM22.363 36.8765L22.9675 37.6732L22.976 37.6666L22.363 36.8765ZM23.8998 35.1316L23.0458 34.6112L23.0399 34.6211L23.8998 35.1316ZM24.7642 32.7945L24.7688 31.7945L23.9313 31.7907L23.7806 32.6145L24.7642 32.7945ZM31.7757 32.8265L32.7685 32.9462L32.9029 31.8316L31.7803 31.8265L31.7757 32.8265ZM30.415 37.1806L29.5275 36.7199L29.5261 36.7225L30.415 37.1806ZM27.5176 40.9105L28.1876 41.6528L28.188 41.6525L27.5176 40.9105ZM23.1955 43.5038L23.5492 44.4391L23.5524 44.4379L23.1955 43.5038ZM9.70079 42.4632L9.20118 43.3295L9.20292 43.3305L9.70079 42.4632ZM4.2581 36.7164L3.37367 37.1831L3.37523 37.186L4.2581 36.7164ZM4.29012 18.4834L5.17143 18.9559L5.17143 18.9559L4.29012 18.4834ZM9.76482 12.7526L10.2597 13.6216L10.2627 13.6198L9.76482 12.7526ZM22.8273 11.568L22.5148 12.5179L22.5166 12.5185L22.8273 11.568ZM27.1654 13.9051L26.5343 14.6809L26.5383 14.6841L27.1654 13.9051ZM30.2389 17.635L29.3576 18.1076L29.3603 18.1125L30.2389 17.635ZM31.7757 21.6935H24.7642V23.6935H31.7757V21.6935ZM25.7544 22.5537C25.6113 21.5402 25.3152 20.6133 24.8521 19.7873L23.1076 20.7653C23.4342 21.348 23.661 22.0325 23.774 22.8333L25.7544 22.5537ZM24.8552 19.7929C24.3997 18.968 23.8103 18.2592 23.0887 17.6744L21.8295 19.2283C22.3459 19.6467 22.7703 20.1545 23.1045 20.7597L24.8552 19.7929ZM23.0887 17.6744C22.3688 17.0911 21.5446 16.6509 20.6265 16.3489L20.0016 18.2487C20.7056 18.4803 21.3114 18.8085 21.8295 19.2283L23.0887 17.6744ZM20.6303 16.3501C19.7171 16.0457 18.7393 15.8986 17.7047 15.8986V17.8986C18.5484 17.8986 19.3102 18.0183 19.9978 18.2475L20.6303 16.3501ZM17.7047 15.8986C15.8344 15.8986 14.1574 16.3661 12.7142 17.3323L13.8269 18.9942C14.9023 18.2742 16.1814 17.8986 17.7047 17.8986V15.8986ZM12.7191 17.329C11.274 18.2843 10.182 19.6651 9.42355 21.4154L11.2587 22.2107C11.8875 20.7594 12.7485 19.707 13.822 18.9975L12.7191 17.329ZM9.42453 21.4132C8.6616 23.1621 8.30059 25.2379 8.30059 27.6079H10.3006C10.3006 25.4317 10.6333 23.6443 11.2577 22.2129L9.42453 21.4132ZM8.30059 27.6079C8.30059 30.0375 8.66027 32.1468 9.42453 33.8987L11.2577 33.099C10.6346 31.6706 10.3006 29.8526 10.3006 27.6079H8.30059ZM9.42679 33.9038C10.1972 35.643 11.2965 37.0083 12.7451 37.9413L13.828 36.2599C12.758 35.5707 11.8937 34.5348 11.2554 33.0938L9.42679 33.9038ZM12.7451 37.9413C14.1824 38.8671 15.8313 39.3172 17.6567 39.3172V37.3172C16.1738 37.3172 14.9093 36.9563 13.828 36.2599L12.7451 37.9413ZM17.6567 39.3172C18.6736 39.3172 19.634 39.1827 20.5308 38.9039L19.9372 36.9941C19.2545 37.2062 18.4967 37.3172 17.6567 37.3172V39.3172ZM20.5272 38.9051C21.4311 38.6279 22.2479 38.219 22.9674 37.6732L21.7587 36.0798C21.2403 36.473 20.6377 36.7793 19.9408 36.993L20.5272 38.9051ZM22.976 37.6666C23.6955 37.1084 24.291 36.4315 24.7597 35.6422L23.0399 34.6211C22.6975 35.1978 22.2685 35.6841 21.75 36.0864L22.976 37.6666ZM24.7537 35.652C25.2404 34.8533 25.5683 33.9565 25.7479 32.9744L23.7806 32.6145C23.64 33.3826 23.3916 34.0439 23.0459 34.6113L24.7537 35.652ZM24.7597 33.7945L31.7711 33.8265L31.7803 31.8265L24.7688 31.7945L24.7597 33.7945ZM30.7829 32.7068C30.6164 34.0878 30.2001 35.4241 29.5275 36.7199L31.3026 37.6413C32.0813 36.1411 32.5722 34.5746 32.7685 32.9462L30.7829 32.7068ZM29.5261 36.7225C28.869 37.9975 27.979 39.1458 26.8472 40.1685L28.188 41.6525C29.4893 40.4767 30.531 39.1384 31.3039 37.6388L29.5261 36.7225ZM26.8475 40.1682C25.7423 41.1658 24.4107 41.9688 22.8385 42.5696L23.5524 44.4379C25.3312 43.7581 26.881 42.8322 28.1876 41.6528L26.8475 40.1682ZM22.8417 42.5684C21.3084 43.1483 19.5476 43.4482 17.5447 43.4482V45.4482C19.7465 45.4482 21.7529 45.1185 23.5492 44.4391L22.8417 42.5684ZM17.5447 43.4482C14.7773 43.4482 12.3374 42.8238 10.1987 41.596L9.20292 43.3305C11.6744 44.7493 14.4638 45.4482 17.5447 45.4482V43.4482ZM10.2004 41.597C8.08018 40.3742 6.39357 38.6017 5.14098 36.2468L3.37523 37.186C4.79062 39.847 6.73247 41.9057 9.20119 43.3295L10.2004 41.597ZM5.14253 36.2497C3.91215 33.918 3.27312 31.0506 3.27312 27.6079H1.27312C1.27312 31.294 1.95741 34.499 3.37367 37.1831L5.14253 36.2497ZM3.27312 27.6079C3.27312 24.1563 3.92216 21.2859 5.17143 18.9559L3.40881 18.0109C1.96875 20.6967 1.27312 23.9094 1.27312 27.6079H3.27312ZM5.17143 18.9559C6.4339 16.6013 8.13007 14.8342 10.2597 13.6216L9.26998 11.8836C6.7893 13.2962 4.83567 15.3496 3.40881 18.0109L5.17143 18.9559ZM10.2627 13.6198C12.4037 12.3907 14.8228 11.7676 17.5447 11.7676V9.76759C14.5037 9.76759 11.7362 10.4678 9.26696 11.8853L10.2627 13.6198ZM17.5447 11.7676C19.3499 11.7676 21.0042 12.021 22.5148 12.5179L23.1397 10.6181C21.4061 10.0478 19.5386 9.76759 17.5447 9.76759V11.7676ZM22.5166 12.5185C24.0397 13.0162 25.3757 13.7382 26.5343 14.6808L27.7965 13.1294C26.4366 12.0231 24.8805 11.1869 23.1379 10.6175L22.5166 12.5185ZM26.5383 14.6841C27.6897 15.611 28.6291 16.7489 29.3576 18.1076L31.1202 17.1624C30.2693 15.5756 29.1597 14.2269 27.7925 13.1262L26.5383 14.6841ZM29.3603 18.1125C30.092 19.4588 30.5713 21.0197 30.7826 22.8106L32.7688 22.5763C32.5319 20.5681 31.9866 18.7566 31.1176 17.1575L29.3603 18.1125ZM70.2659 11.2158H71.2659V10.2158H70.2659V11.2158ZM70.2659 44V45H71.2659V44H70.2659ZM63.3345 44H62.3345V45H63.3345V44ZM63.3345 17.7951H64.3345V16.7951H63.3345V17.7951ZM63.1424 17.7951V16.7951H62.8549L62.6112 16.9478L63.1424 17.7951ZM55.6347 22.5014H54.6347V24.3085L56.1658 23.3487L55.6347 22.5014ZM55.6347 16.3543L55.0997 15.5095L54.6347 15.8039V16.3543H55.6347ZM63.7507 11.2158V10.2158H63.4607L63.2157 10.3709L63.7507 11.2158ZM69.2659 11.2158V44H71.2659V11.2158H69.2659ZM70.2659 43H63.3345V45H70.2659V43ZM64.3345 44V17.7951H62.3345V44H64.3345ZM63.3345 16.7951H63.1424V18.7951H63.3345V16.7951ZM62.6112 16.9478L55.1035 21.6541L56.1658 23.3487L63.6735 18.6423L62.6112 16.9478ZM56.6347 22.5014V16.3543H54.6347V22.5014H56.6347ZM56.1696 17.1992L64.2856 12.0607L63.2157 10.3709L55.0997 15.5095L56.1696 17.1992ZM63.7507 12.2158H70.2659V10.2158H63.7507V12.2158ZM94.4274 10.7676L94.4231 11.7676H94.4274V10.7676ZM99.2938 11.616L98.9526 12.556L98.9547 12.5567L99.2938 11.616ZM103.488 14.3213L102.778 15.0254L102.781 15.0284L103.488 14.3213ZM106.417 19.2518L105.473 19.5813L105.475 19.5872L106.417 19.2518ZM107.522 26.7595L108.522 26.7595L108.522 26.7559L107.522 26.7595ZM106.577 34.2192L105.616 33.9426L105.616 33.9457L106.577 34.2192ZM103.904 39.7739L104.699 40.3801L104.699 40.3801L103.904 39.7739ZM99.694 43.2636L100.127 44.165L100.132 44.1627L99.694 43.2636ZM88.3925 43.1836L87.9384 44.0746L87.943 44.0769L88.3925 43.1836ZM84.3425 39.7099L83.5187 40.2769L83.5235 40.2837L84.3425 39.7099ZM82.5015 34.7474V33.7474H81.3785L81.5082 34.8629L82.5015 34.7474ZM89.3369 34.7474L90.3129 34.5296L90.1383 33.7474H89.3369V34.7474ZM91.0178 37.5328L90.4052 38.3232L90.4114 38.328L91.0178 37.5328ZM99.0537 35.7239L99.9121 36.237L99.9134 36.2348L99.0537 35.7239ZM100.735 28.0561L101.735 28.0594L101.738 27.0561H100.735V28.0561ZM100.51 28.0561V27.0561H99.8985L99.62 27.601L100.51 28.0561ZM98.5255 30.5374L99.1598 31.3104L99.1656 31.3056L98.5255 30.5374ZM95.66 32.1221L95.3326 31.1773L95.3297 31.1783L95.66 32.1221ZM87.0798 31.3217L86.5662 32.1798L86.5662 32.1798L87.0798 31.3217ZM83.494 27.5759L82.6179 28.058L82.6179 28.058L83.494 27.5759ZM82.1814 22.1332L83.1814 22.1332L83.1814 22.1283L82.1814 22.1332ZM83.7021 16.2583L84.561 16.7704L84.561 16.7704L83.7021 16.2583ZM87.9923 12.2243L88.4599 13.1082L88.4618 13.1072L87.9923 12.2243ZM91.594 16.9787L91.0748 16.124L91.0699 16.127L91.594 16.9787ZM89.6091 19.0437L88.7395 18.5498L88.7349 18.558L89.6091 19.0437ZM88.9047 21.9411L89.9048 21.9411L89.9047 21.9311L88.9047 21.9411ZM89.6091 24.8545L88.7303 25.3319L88.7339 25.3384L88.7375 25.3448L89.6091 24.8545ZM91.562 26.9036L91.033 27.7522L91.0394 27.7562L91.0459 27.7601L91.562 26.9036ZM96.6365 27.2077L96.2357 26.2915L96.2357 26.2915L96.6365 27.2077ZM98.4134 25.9751L97.692 25.2826L97.6917 25.2829L98.4134 25.9751ZM99.614 24.1342L100.537 24.5178L100.537 24.5178L99.614 24.1342ZM100.046 21.9251L101.046 21.9251L101.046 21.9148L100.046 21.9251ZM99.3098 19.0757L100.184 18.59L100.184 18.59L99.3098 19.0757ZM97.3249 16.9947L97.852 16.1449L97.852 16.1449L97.3249 16.9947ZM94.4274 11.7676C95.9993 11.7676 97.5058 12.0308 98.9526 12.556L99.6351 10.676C97.9657 10.07 96.2279 9.76759 94.4274 9.76759V11.7676ZM98.9547 12.5567C100.377 13.0697 101.65 13.888 102.778 15.0254L104.198 13.6173C102.871 12.2788 101.348 11.2936 99.633 10.6753L98.9547 12.5567ZM102.781 15.0284C103.89 16.1376 104.796 17.6411 105.473 19.5813L107.362 18.9223C106.609 16.7645 105.562 14.981 104.195 13.6142L102.781 15.0284ZM105.475 19.5872C106.152 21.4876 106.512 23.8704 106.522 26.7631L108.522 26.7559C108.511 23.715 108.134 21.0927 107.359 18.9164L105.475 19.5872ZM106.522 26.7595C106.522 29.4713 106.215 31.8622 105.616 33.9426L107.538 34.4957C108.199 32.2007 108.522 29.6184 108.522 26.7595H106.522ZM105.616 33.9457C105.025 36.0236 104.184 37.7573 103.109 39.1677L104.699 40.3801C105.951 38.7384 106.892 36.7689 107.539 34.4926L105.616 33.9457ZM103.109 39.1677C102.035 40.576 100.752 41.636 99.2562 42.3646L100.132 44.1627C101.923 43.2905 103.446 42.024 104.699 40.3801L103.109 39.1677ZM99.2609 42.3623C97.7671 43.0801 96.082 43.4482 94.1873 43.4482V45.4482C96.348 45.4482 98.334 45.0266 100.127 44.165L99.2609 42.3623ZM94.1873 43.4482C92.1297 43.4482 90.3565 43.0524 88.8419 42.2903L87.943 44.0769C89.7794 45.0009 91.8694 45.4482 94.1873 45.4482V43.4482ZM88.8465 42.2926C87.3087 41.509 86.087 40.4569 85.1614 39.136L83.5235 40.2837C84.6469 41.887 86.1252 43.1507 87.9384 44.0746L88.8465 42.2926ZM85.1661 39.1428C84.248 37.8091 83.6901 36.311 83.4949 34.6319L81.5082 34.8629C81.7399 36.855 82.4092 38.6652 83.5188 40.2769L85.1661 39.1428ZM82.5015 35.7474H89.3369V33.7474H82.5015V35.7474ZM88.3609 34.9653C88.6713 36.3557 89.3428 37.4999 90.4052 38.3232L91.6303 36.7424C90.9852 36.2424 90.5361 35.5297 90.3129 34.5296L88.3609 34.9653ZM90.4114 38.328C91.4683 39.1339 92.7483 39.5093 94.1873 39.5093V37.5093C93.1078 37.5093 92.2748 37.2337 91.6241 36.7376L90.4114 38.328ZM94.1873 39.5093C96.6794 39.5093 98.6247 38.3909 99.9121 36.237L98.1954 35.2109C97.263 36.7708 95.964 37.5093 94.1873 37.5093V39.5093ZM99.9134 36.2348C101.149 34.1558 101.724 31.4005 101.735 28.0594L99.7346 28.0528C99.7242 31.2003 99.1783 33.5568 98.1941 35.213L99.9134 36.2348ZM100.735 27.0561H100.51V29.0561H100.735V27.0561ZM99.62 27.601C99.1908 28.4407 98.6145 29.1615 97.8853 29.7691L99.1656 31.3056C100.101 30.5259 100.848 29.5925 101.401 28.5112L99.62 27.601ZM97.8911 29.7643C97.1554 30.368 96.3055 30.8401 95.3326 31.1773L95.9875 33.067C97.1703 32.6571 98.2307 32.0727 99.1598 31.3104L97.8911 29.7643ZM95.3297 31.1783C94.3756 31.5122 93.3513 31.6824 92.2504 31.6824V33.6824C93.5613 33.6824 94.8102 33.4791 95.9904 33.066L95.3297 31.1783ZM92.2504 31.6824C90.4821 31.6824 88.9393 31.2693 87.5934 30.4637L86.5662 32.1798C88.2512 33.1884 90.1553 33.6824 92.2504 33.6824V31.6824ZM87.5934 30.4637C86.2343 29.6502 85.1623 28.5332 84.3701 27.0937L82.6179 28.058C83.576 29.7988 84.8945 31.1791 86.5662 32.1798L87.5934 30.4637ZM84.3701 27.0937C83.5859 25.6688 83.1814 24.024 83.1814 22.1332H81.1814C81.1814 24.319 81.652 26.3028 82.6179 28.058L84.3701 27.0937ZM83.1814 22.1283C83.1715 20.0933 83.6388 18.3171 84.561 16.7704L82.8432 15.7462C81.7165 17.6358 81.1699 19.7763 81.1814 22.1381L83.1814 22.1283ZM84.561 16.7704C85.488 15.2159 86.7799 13.9971 88.4599 13.1082L87.5246 11.3404C85.5335 12.3938 83.9653 13.8644 82.8432 15.7462L84.561 16.7704ZM88.4618 13.1072C90.1393 12.2151 92.1164 11.7575 94.4231 11.7676L94.4318 9.7676C91.8507 9.75632 89.5377 10.2699 87.5227 11.3414L88.4618 13.1072ZM94.4755 15.2103C93.232 15.2103 92.0887 15.508 91.0748 16.124L92.1133 17.8333C92.7855 17.4248 93.5632 17.2103 94.4755 17.2103V15.2103ZM91.0699 16.127C90.0915 16.7291 89.3121 17.5416 88.7395 18.5498L90.4786 19.5375C90.8878 18.8169 91.4317 18.2527 92.1181 17.8303L91.0699 16.127ZM88.7349 18.558C88.1639 19.5859 87.8925 20.7248 87.9048 21.9511L89.9047 21.9311C89.8956 21.0231 90.0938 20.2303 90.4832 19.5293L88.7349 18.558ZM87.9047 21.9411C87.9047 23.1694 88.1737 24.3072 88.7303 25.3319L90.4878 24.3772C90.1052 23.673 89.9047 22.8686 89.9047 21.9411H87.9047ZM88.7375 25.3448C89.299 26.3431 90.0671 27.15 91.033 27.7522L92.091 26.0549C91.4135 25.6326 90.8796 25.0735 90.4806 24.3643L88.7375 25.3448ZM91.0459 27.7601C92.0492 28.3646 93.1808 28.6559 94.4114 28.6559V26.6559C93.5077 26.6559 92.7397 26.4457 92.0781 26.047L91.0459 27.7601ZM94.4114 28.6559C95.3395 28.6559 96.2188 28.482 97.0373 28.1239L96.2357 26.2915C95.6882 26.5311 95.0842 26.6559 94.4114 26.6559V28.6559ZM97.0373 28.1239C97.8374 27.7738 98.5397 27.2881 99.1351 26.6673L97.6917 25.2829C97.284 25.708 96.8016 26.044 96.2357 26.2915L97.0373 28.1239ZM99.1348 26.6676C99.7344 26.0431 100.202 25.3243 100.537 24.5178L98.6905 23.7506C98.4492 24.3314 98.117 24.8399 97.692 25.2826L99.1348 26.6676ZM100.537 24.5178C100.878 23.698 101.046 22.8308 101.046 21.9251H99.0462C99.0462 22.5775 98.9263 23.183 98.6905 23.7506L100.537 24.5178ZM101.046 21.9148C101.034 20.7212 100.749 19.6069 100.184 18.59L98.4357 19.5613C98.8313 20.2733 99.0372 21.0586 99.0463 21.9354L101.046 21.9148ZM100.184 18.59C99.6207 17.5761 98.8394 16.7573 97.852 16.1449L96.7978 17.8445C97.4965 18.2779 98.0385 18.8464 98.4357 19.5613L100.184 18.59ZM97.852 16.1449C96.8402 15.5173 95.7056 15.2103 94.4755 15.2103V17.2103C95.3583 17.2103 96.1234 17.4262 96.7978 17.8445L97.852 16.1449ZM128.694 10.7676L128.69 11.7676H128.694V10.7676ZM133.56 11.616L133.219 12.556L133.221 12.5567L133.56 11.616ZM137.754 14.3213L137.044 15.0254L137.047 15.0284L137.754 14.3213ZM140.684 19.2518L139.74 19.5813L139.742 19.5872L140.684 19.2518ZM141.788 26.7595L142.788 26.7595L142.788 26.7559L141.788 26.7595ZM140.844 34.2192L139.883 33.9426L139.882 33.9457L140.844 34.2192ZM138.171 39.7739L138.966 40.3801L138.966 40.3801L138.171 39.7739ZM133.961 43.2636L134.394 44.165L134.398 44.1627L133.961 43.2636ZM122.659 43.1836L122.205 44.0746L122.209 44.0769L122.659 43.1836ZM118.609 39.7099L117.785 40.2769L117.79 40.2837L118.609 39.7099ZM116.768 34.7474V33.7474H115.645L115.775 34.8629L116.768 34.7474ZM123.603 34.7474L124.579 34.5296L124.405 33.7474H123.603V34.7474ZM125.284 37.5328L124.672 38.3232L124.678 38.328L125.284 37.5328ZM133.32 35.7239L134.179 36.237L134.18 36.2348L133.32 35.7239ZM135.001 28.0561L136.001 28.0594L136.004 27.0561H135.001V28.0561ZM134.777 28.0561V27.0561H134.165L133.887 27.601L134.777 28.0561ZM132.792 30.5374L133.426 31.3104L133.432 31.3056L132.792 30.5374ZM129.927 32.1221L129.599 31.1773L129.596 31.1783L129.927 32.1221ZM121.346 31.3217L120.833 32.1798L120.833 32.1798L121.346 31.3217ZM117.761 27.5759L116.884 28.058L116.884 28.058L117.761 27.5759ZM116.448 22.1332L117.448 22.1332L117.448 22.1283L116.448 22.1332ZM117.969 16.2583L118.828 16.7704L118.828 16.7704L117.969 16.2583ZM122.259 12.2243L122.726 13.1082L122.728 13.1072L122.259 12.2243ZM125.861 16.9787L125.341 16.124L125.336 16.127L125.861 16.9787ZM123.876 19.0437L123.006 18.5498L123.001 18.558L123.876 19.0437ZM123.171 21.9411L124.171 21.9411L124.171 21.9311L123.171 21.9411ZM123.876 24.8545L122.997 25.3319L123 25.3384L123.004 25.3448L123.876 24.8545ZM125.829 26.9036L125.3 27.7522L125.306 27.7562L125.312 27.7601L125.829 26.9036ZM130.903 27.2077L130.502 26.2915L130.502 26.2915L130.903 27.2077ZM132.68 25.9751L131.959 25.2826L131.958 25.2829L132.68 25.9751ZM133.881 24.1342L134.804 24.5178L134.804 24.5178L133.881 24.1342ZM134.313 21.9251L135.313 21.9251L135.313 21.9148L134.313 21.9251ZM133.576 19.0757L134.451 18.59L134.451 18.59L133.576 19.0757ZM131.591 16.9947L132.118 16.1449L132.118 16.1449L131.591 16.9947ZM128.694 11.7676C130.266 11.7676 131.772 12.0308 133.219 12.556L133.902 10.676C132.232 10.07 130.494 9.76759 128.694 9.76759V11.7676ZM133.221 12.5567C134.644 13.0697 135.917 13.888 137.044 15.0254L138.465 13.6173C137.138 12.2788 135.614 11.2936 133.9 10.6753L133.221 12.5567ZM137.047 15.0284C138.156 16.1376 139.063 17.6411 139.74 19.5813L141.628 18.9223C140.875 16.7645 139.828 14.981 138.462 13.6142L137.047 15.0284ZM139.742 19.5872C140.418 21.4876 140.778 23.8704 140.788 26.7631L142.788 26.7559C142.777 23.715 142.401 21.0927 141.626 18.9164L139.742 19.5872ZM140.788 26.7595C140.788 29.4713 140.482 31.8622 139.883 33.9426L141.805 34.4957C142.465 32.2007 142.788 29.6184 142.788 26.7595H140.788ZM139.882 33.9457C139.291 36.0236 138.45 37.7573 137.375 39.1677L138.966 40.3801C140.217 38.7384 141.159 36.7689 141.806 34.4926L139.882 33.9457ZM137.375 39.1677C136.302 40.576 135.019 41.636 133.523 42.3646L134.398 44.1627C136.189 43.2905 137.713 42.024 138.966 40.3801L137.375 39.1677ZM133.527 42.3623C132.034 43.0801 130.349 43.4482 128.454 43.4482V45.4482C130.614 45.4482 132.601 45.0266 134.394 44.165L133.527 42.3623ZM128.454 43.4482C126.396 43.4482 124.623 43.0524 123.108 42.2903L122.209 44.0769C124.046 45.0009 126.136 45.4482 128.454 45.4482V43.4482ZM123.113 42.2926C121.575 41.509 120.354 40.4569 119.428 39.136L117.79 40.2837C118.913 41.887 120.392 43.1507 122.205 44.0746L123.113 42.2926ZM119.433 39.1428C118.515 37.8091 117.957 36.311 117.761 34.6319L115.775 34.8629C116.006 36.855 116.676 38.6652 117.785 40.2769L119.433 39.1428ZM116.768 35.7474H123.603V33.7474H116.768V35.7474ZM122.627 34.9653C122.938 36.3557 123.609 37.4999 124.672 38.3232L125.897 36.7424C125.252 36.2424 124.803 35.5297 124.579 34.5296L122.627 34.9653ZM124.678 38.328C125.735 39.1339 127.015 39.5093 128.454 39.5093V37.5093C127.374 37.5093 126.541 37.2337 125.891 36.7376L124.678 38.328ZM128.454 39.5093C130.946 39.5093 132.891 38.3909 134.179 36.237L132.462 35.2109C131.53 36.7708 130.231 37.5093 128.454 37.5093V39.5093ZM134.18 36.2348C135.415 34.1558 135.99 31.4005 136.001 28.0594L134.001 28.0528C133.991 31.2003 133.445 33.5568 132.461 35.213L134.18 36.2348ZM135.001 27.0561H134.777V29.0561H135.001V27.0561ZM133.887 27.601C133.457 28.4407 132.881 29.1615 132.152 29.7691L133.432 31.3056C134.368 30.5259 135.115 29.5925 135.667 28.5112L133.887 27.601ZM132.158 29.7643C131.422 30.368 130.572 30.8401 129.599 31.1773L130.254 33.067C131.437 32.6571 132.497 32.0727 133.426 31.3104L132.158 29.7643ZM129.596 31.1783C128.642 31.5122 127.618 31.6824 126.517 31.6824V33.6824C127.828 33.6824 129.077 33.4791 130.257 33.066L129.596 31.1783ZM126.517 31.6824C124.749 31.6824 123.206 31.2693 121.86 30.4637L120.833 32.1798C122.518 33.1884 124.422 33.6824 126.517 33.6824V31.6824ZM121.86 30.4637C120.501 29.6502 119.429 28.5332 118.637 27.0937L116.884 28.058C117.842 29.7988 119.161 31.1791 120.833 32.1798L121.86 30.4637ZM118.637 27.0937C117.852 25.6688 117.448 24.024 117.448 22.1332H115.448C115.448 24.319 115.918 26.3028 116.884 28.058L118.637 27.0937ZM117.448 22.1283C117.438 20.0933 117.905 18.3171 118.828 16.7704L117.11 15.7462C115.983 17.6358 115.436 19.7763 115.448 22.1381L117.448 22.1283ZM118.828 16.7704C119.755 15.2159 121.046 13.9971 122.726 13.1082L121.791 11.3404C119.8 12.3938 118.232 13.8644 117.11 15.7462L118.828 16.7704ZM122.728 13.1072C124.406 12.2151 126.383 11.7575 128.69 11.7676L128.698 9.7676C126.117 9.75632 123.804 10.2699 121.789 11.3414L122.728 13.1072ZM128.742 15.2103C127.499 15.2103 126.355 15.508 125.341 16.124L126.38 17.8333C127.052 17.4248 127.83 17.2103 128.742 17.2103V15.2103ZM125.336 16.127C124.358 16.7291 123.579 17.5416 123.006 18.5498L124.745 19.5375C125.154 18.8169 125.698 18.2527 126.385 17.8303L125.336 16.127ZM123.001 18.558C122.43 19.5859 122.159 20.7248 122.171 21.9511L124.171 21.9311C124.162 21.0231 124.36 20.2303 124.75 19.5293L123.001 18.558ZM122.171 21.9411C122.171 23.1694 122.44 24.3072 122.997 25.3319L124.754 24.3772C124.372 23.673 124.171 22.8686 124.171 21.9411H122.171ZM123.004 25.3448C123.566 26.3431 124.334 27.15 125.3 27.7522L126.358 26.0549C125.68 25.6326 125.146 25.0735 124.747 24.3643L123.004 25.3448ZM125.312 27.7601C126.316 28.3646 127.447 28.6559 128.678 28.6559V26.6559C127.774 26.6559 127.006 26.4457 126.345 26.047L125.312 27.7601ZM128.678 28.6559C129.606 28.6559 130.485 28.482 131.304 28.1239L130.502 26.2915C129.955 26.5311 129.351 26.6559 128.678 26.6559V28.6559ZM131.304 28.1239C132.104 27.7738 132.806 27.2881 133.402 26.6673L131.958 25.2829C131.55 25.708 131.068 26.044 130.502 26.2915L131.304 28.1239ZM133.401 26.6676C134.001 26.0431 134.469 25.3243 134.804 24.5178L132.957 23.7506C132.716 24.3314 132.383 24.8399 131.959 25.2826L133.401 26.6676ZM134.804 24.5178C135.145 23.698 135.313 22.8308 135.313 21.9251H133.313C133.313 22.5775 133.193 23.183 132.957 23.7506L134.804 24.5178ZM135.313 21.9148C135.3 20.7212 135.015 19.6069 134.451 18.59L132.702 19.5613C133.098 20.2733 133.304 21.0586 133.313 21.9354L135.313 21.9148ZM134.451 18.59C133.887 17.5761 133.106 16.7573 132.118 16.1449L131.064 17.8445C131.763 18.2779 132.305 18.8464 132.702 19.5613L134.451 18.59ZM132.118 16.1449C131.107 15.5173 129.972 15.2103 128.742 15.2103V17.2103C129.625 17.2103 130.39 17.4262 131.064 17.8445L132.118 16.1449ZM151.515 44L150.622 43.549L149.889 45H151.515V44ZM165.106 17.1067L165.998 17.5578L166.106 17.345V17.1067H165.106ZM165.106 16.8826H166.106V15.8826H165.106V16.8826ZM149.274 16.8826H148.274V17.8826H149.274V16.8826ZM149.274 11.2158V10.2158H148.274V11.2158H149.274ZM172.277 11.2158H173.277V10.2158H172.277V11.2158ZM172.277 16.9626L173.17 17.4122L173.277 17.2001V16.9626H172.277ZM158.67 44V45H159.287L159.564 44.4495L158.67 44ZM152.407 44.451L165.998 17.5578L164.213 16.6557L150.622 43.549L152.407 44.451ZM166.106 17.1067V16.8826H164.106V17.1067H166.106ZM165.106 15.8826H149.274V17.8826H165.106V15.8826ZM150.274 16.8826V11.2158H148.274V16.8826H150.274ZM149.274 12.2158H172.277V10.2158H149.274V12.2158ZM171.277 11.2158V16.9626H173.277V11.2158H171.277ZM171.384 16.5131L157.777 43.5505L159.564 44.4495L173.17 17.4122L171.384 16.5131ZM158.67 43H151.515V45H158.67V43ZM218.423 11.2158H219.423V10.2158H218.423V11.2158ZM218.423 16.9306V17.9306H219.423V16.9306H218.423ZM203.6 16.9306V15.9306H202.6V16.9306H203.6ZM203.6 44V45H204.6V44H203.6ZM196.668 44H195.668V45H196.668V44ZM196.668 11.2158V10.2158H195.668V11.2158H196.668ZM217.423 11.2158V16.9306H219.423V11.2158H217.423ZM218.423 15.9306H203.6V17.9306H218.423V15.9306ZM202.6 16.9306V44H204.6V16.9306H202.6ZM203.6 43H196.668V45H203.6V43ZM197.668 44V11.2158H195.668V44H197.668ZM196.668 12.2158H218.423V10.2158H196.668V12.2158ZM253.966 36.7324L253.086 36.257L253.085 36.2599L253.966 36.7324ZM248.46 42.4792L248.953 43.3492L248.954 43.3485L248.46 42.4792ZM232.804 42.4632L233.3 41.595L232.804 42.4632ZM227.313 36.7164L226.432 37.1889L226.432 37.1889L227.313 36.7164ZM227.313 18.4834L228.194 18.9559L228.194 18.9559L227.313 18.4834ZM232.804 12.7526L233.297 13.6225L233.3 13.6208L232.804 12.7526ZM248.46 12.7526L247.963 13.6208L247.968 13.6235L248.46 12.7526ZM253.966 18.4834L253.085 18.9559L253.086 18.9588L253.966 18.4834ZM247.931 21.749L247.012 22.1437L247.015 22.1489L247.931 21.749ZM245.034 18.1312L244.484 18.9666L244.484 18.9666L245.034 18.1312ZM236.261 18.1312L236.811 18.9666L236.811 18.9666L236.261 18.1312ZM233.348 21.749L232.431 21.3492L232.429 21.3543L233.348 21.749ZM233.348 33.4668L232.429 33.8615L232.431 33.8666L233.348 33.4668ZM236.261 37.0846L236.811 36.2493L236.811 36.2493L236.261 37.0846ZM245.034 37.0846L244.484 36.2493L244.484 36.2493L245.034 37.0846ZM247.931 33.4668L247.015 33.0669L247.012 33.0721L247.931 33.4668ZM254.999 27.6079C254.999 31.0584 254.345 33.9277 253.086 36.257L254.846 37.2078C256.298 34.5214 256.999 31.3076 256.999 27.6079H254.999ZM253.085 36.2599C251.823 38.6127 250.117 40.3858 247.965 41.61L248.954 43.3485C251.455 41.926 253.42 39.8679 254.848 37.2049L253.085 36.2599ZM247.966 41.6093C245.814 42.8294 243.382 43.4482 240.648 43.4482V45.4482C243.697 45.4482 246.474 44.7544 248.953 43.3492L247.966 41.6093ZM240.648 43.4482C237.892 43.4482 235.451 42.8241 233.3 41.595L232.308 43.3315C234.788 44.749 237.577 45.4482 240.648 45.4482V43.4482ZM233.3 41.595C231.158 40.3711 229.457 38.5979 228.194 36.2439L226.432 37.1889C227.859 39.8507 229.818 41.9087 232.308 43.3315L233.3 41.595ZM228.194 36.2439C226.945 33.9135 226.296 31.0483 226.296 27.6079H224.296C224.296 31.2963 224.992 34.5035 226.432 37.1889L228.194 36.2439ZM226.296 27.6079C226.296 24.1563 226.945 21.2859 228.194 18.9559L226.432 18.0109C224.992 20.6967 224.296 23.9094 224.296 27.6079H226.296ZM228.194 18.9559C229.456 16.6025 231.157 14.8355 233.297 13.6225L232.311 11.8826C229.819 13.2949 227.859 15.3485 226.432 18.0109L228.194 18.9559ZM233.3 13.6208C235.451 12.3917 237.892 11.7676 240.648 11.7676V9.76759C237.577 9.76759 234.788 10.4668 232.308 11.8843L233.3 13.6208ZM240.648 11.7676C243.381 11.7676 245.811 12.391 247.963 13.6208L248.956 11.8843C246.476 10.4675 243.699 9.76759 240.648 9.76759V11.7676ZM247.968 13.6235C250.119 14.8368 251.824 16.6037 253.085 18.9559L254.848 18.0109C253.419 15.3473 251.453 13.2936 248.951 11.8816L247.968 13.6235ZM253.086 18.9588C254.345 21.2882 254.999 24.1574 254.999 27.6079H256.999C256.999 23.9082 256.298 20.6944 254.846 18.008L253.086 18.9588ZM249.972 27.6079C249.972 25.1981 249.612 23.1001 248.848 21.3492L247.015 22.1489C247.638 23.5782 247.972 25.386 247.972 27.6079H249.972ZM248.85 21.3543C248.102 19.6135 247.02 18.2414 245.584 17.2959L244.484 18.9666C245.545 19.6645 246.394 20.7043 247.012 22.1437L248.85 21.3543ZM245.584 17.2959C244.152 16.354 242.494 15.8986 240.648 15.8986V17.8986C242.152 17.8986 243.418 18.2649 244.484 18.9666L245.584 17.2959ZM240.648 15.8986C238.801 15.8986 237.143 16.354 235.712 17.2959L236.811 18.9666C237.877 18.2649 239.143 17.8986 240.648 17.8986V15.8986ZM235.712 17.2959C234.277 18.2404 233.19 19.6106 232.431 21.3492L234.265 22.1489C234.894 20.7072 235.749 19.6655 236.811 18.9666L235.712 17.2959ZM232.429 21.3543C231.678 23.1037 231.324 25.1998 231.324 27.6079H233.324C233.324 25.3844 233.652 23.5746 234.267 22.1437L232.429 21.3543ZM231.324 27.6079C231.324 30.016 231.678 32.1122 232.429 33.8615L234.267 33.0721C233.652 31.6412 233.324 29.8314 233.324 27.6079H231.324ZM232.431 33.8666C233.19 35.6052 234.277 36.9754 235.712 37.9199L236.811 36.2493C235.749 35.5503 234.894 34.5086 234.265 33.0669L232.431 33.8666ZM235.712 37.9199C237.143 38.8618 238.801 39.3172 240.648 39.3172V37.3172C239.143 37.3172 237.877 36.9509 236.811 36.2493L235.712 37.9199ZM240.648 39.3172C242.494 39.3172 244.152 38.8618 245.584 37.9199L244.484 36.2493C243.418 36.9509 242.152 37.3172 240.648 37.3172V39.3172ZM245.584 37.9199C247.02 36.9744 248.102 35.6023 248.85 33.8615L247.012 33.0721C246.394 34.5115 245.545 35.5513 244.484 36.2493L245.584 37.9199ZM248.848 33.8666C249.612 32.1157 249.972 30.0177 249.972 27.6079H247.972C247.972 29.8298 247.638 31.6376 247.015 33.0669L248.848 33.8666ZM263.865 51.9079H262.865V52.9079H263.865V51.9079ZM263.865 38.4773V37.4773H262.865V38.4773H263.865ZM266.09 38.4773V39.4773H266.412L266.673 39.2895L266.09 38.4773ZM268.171 36.1721L269.015 36.7078L269.018 36.7038L268.171 36.1721ZM269.788 32.0261L270.757 32.2728L270.757 32.2714L269.788 32.0261ZM270.748 25.0787L271.746 25.1457L271.746 25.1455L270.748 25.0787ZM271.677 11.2158V10.2158H270.741L270.679 11.149L271.677 11.2158ZM293.367 11.2158H294.367V10.2158H293.367V11.2158ZM293.367 38.4773H292.367V39.4773H293.367V38.4773ZM296.953 38.4773H297.953V37.4773H296.953V38.4773ZM296.953 51.8759V52.8759H297.953V51.8759H296.953ZM290.294 51.8759H289.294V52.8759H290.294V51.8759ZM290.294 44H291.294V43H290.294V44ZM270.524 44V43H269.524V44H270.524ZM270.524 51.9079V52.9079H271.524V51.9079H270.524ZM274.094 38.4773L273.241 37.9554L272.31 39.4773H274.094V38.4773ZM286.708 38.4773V39.4773H287.708V38.4773H286.708ZM286.708 16.9306H287.708V15.9306H286.708V16.9306ZM277.92 16.9306V15.9306H276.981L276.922 16.8679L277.92 16.9306ZM277.407 25.0787L278.405 25.1426L278.405 25.1414L277.407 25.0787ZM276.719 30.8415L275.737 30.6538L275.736 30.6599L276.719 30.8415ZM275.582 35.2437L274.64 34.9083L274.639 34.913L275.582 35.2437ZM264.865 51.9079V38.4773H262.865V51.9079H264.865ZM263.865 39.4773H266.09V37.4773H263.865V39.4773ZM266.673 39.2895C267.558 38.6539 268.334 37.7813 269.015 36.7078L267.326 35.6364C266.748 36.5479 266.137 37.2121 265.506 37.6651L266.673 39.2895ZM269.018 36.7038C269.724 35.5787 270.295 34.0866 270.757 32.2728L268.819 31.7794C268.384 33.4873 267.877 34.7592 267.324 35.6405L269.018 36.7038ZM270.757 32.2714C271.226 30.4182 271.552 28.0361 271.746 25.1457L269.75 25.0116C269.56 27.8413 269.246 30.0909 268.818 31.7808L270.757 32.2714ZM271.746 25.1455L272.674 11.2826L270.679 11.149L269.75 25.0118L271.746 25.1455ZM271.677 12.2158H293.367V10.2158H271.677V12.2158ZM292.367 11.2158V38.4773H294.367V11.2158H292.367ZM293.367 39.4773H296.953V37.4773H293.367V39.4773ZM295.953 38.4773V51.8759H297.953V38.4773H295.953ZM296.953 50.8759H290.294V52.8759H296.953V50.8759ZM291.294 51.8759V44H289.294V51.8759H291.294ZM290.294 43H270.524V45H290.294V43ZM269.524 44V51.9079H271.524V44H269.524ZM270.524 50.9079H263.865V52.9079H270.524V50.9079ZM274.094 39.4773H286.708V37.4773H274.094V39.4773ZM287.708 38.4773V16.9306H285.708V38.4773H287.708ZM286.708 15.9306H277.92V17.9306H286.708V15.9306ZM276.922 16.8679L276.409 25.0159L278.405 25.1414L278.918 16.9934L276.922 16.8679ZM276.409 25.0147C276.273 27.1502 276.047 29.0285 275.737 30.6538L277.701 31.0292C278.031 29.3036 278.265 27.3399 278.405 25.1426L276.409 25.0147ZM275.736 30.6599C275.433 32.2966 275.067 33.7105 274.64 34.9084L276.525 35.579C276.995 34.2582 277.386 32.7374 277.702 31.0231L275.736 30.6599ZM274.639 34.913C274.219 36.1103 273.751 37.1211 273.241 37.9554L274.947 38.9991C275.546 38.0192 276.071 36.8743 276.526 35.5744L274.639 34.913Z" fill="white"/>
<path d="M324.705 10L337.538 43H331.915L329.242 35.8711L328.999 35.2222H328.306H314.694H314.001L313.758 35.8711L311.085 43H305.462L318.295 10H324.705ZM326.361 31.3889H327.719L327.316 30.0918C327.249 29.8777 326.951 28.9276 326.533 27.5942C325.186 23.3031 322.594 15.0425 322.465 14.5702L321.486 10.9799L320.533 14.5774L320.533 14.5776L320.533 14.5791L320.532 14.5838L320.527 14.6001L320.511 14.6538C320.498 14.6981 320.481 14.7562 320.459 14.8277C320.416 14.9707 320.357 15.1627 320.285 15.3973C320.141 15.8662 319.944 16.5011 319.712 17.2454C319.248 18.7338 318.646 20.6569 318.05 22.5599C317.453 24.4627 316.862 26.3449 316.42 27.7515L315.887 29.4476L315.738 29.9214L315.698 30.0461L315.688 30.078L315.686 30.0861L315.685 30.0881L315.685 30.0886C315.685 30.0887 315.685 30.0888 316.639 30.3889L315.685 30.0888L315.276 31.3889H316.639H326.361Z" stroke="white" stroke-width="2"/>
</svg>
