<?xml version="1.0" encoding="utf-8"?>
<!-- Generator: Adobe Illustrator 15.0.0, SVG Export Plug-In . SVG Version: 6.00 Build 0)  -->
<!DOCTYPE svg PUBLIC "-//W3C//DTD SVG 1.1//EN" "http://www.w3.org/Graphics/SVG/1.1/DTD/svg11.dtd">
<svg version="1.1" xmlns="http://www.w3.org/2000/svg" xmlns:xlink="http://www.w3.org/1999/xlink" x="0px" y="0px"
	 width="307.44px" height="105.35px" viewBox="0 0 307.44 105.35" enable-background="new 0 0 307.44 105.35" xml:space="preserve">
<g id="Слой_1">
</g>
<g id="Слой_2">
	<g>
		<g>
			<line fill="none" stroke="#0047A9" stroke-width="1.66" stroke-miterlimit="10" x1="118.45" y1="74.94" x2="307.28" y2="74.94"/>
			<g>
				<g>
					<path fill="#3171CA" d="M121.53,6.66v5.9c0,0-0.04,0.3,0.18,0.28c2.1-0.21,5.32-5.34,5.48-6.11c0.01-0.08,0.22-0.26,0.22-0.26
						h2.8h0.1c0,0,0.13,0.2,0.1,0.28c-2.14,4.64-4.93,6.42-5.62,6.63c-0.12,0.04-0.06,0.15-0.02,0.18c1.83,0.97,3.34,1.92,4.37,3.6
						c0.78,1.28,1.38,2.49,1.95,4.21c0.03,0.09-0.11,0.25-0.11,0.25h-3.04c0,0-0.66-2.57-1.66-3.84c-2.29-2.9-4.34-2.87-4.57-2.77
						c-0.23,0.09-0.19,0.28-0.19,0.28v6.03l-0.24,0.29h-2.52l-0.26-0.29V6.73l0.2-0.26h2.54L121.53,6.66z"/>
					<path fill="#3171CA" d="M150.41,17.56l-1.27,3.77l-0.31,0.28h-2.74l-0.11-0.26l5.2-14.67l0.29-0.22h3.48l0.3,0.25l5.24,14.59
						l-0.09,0.31h-2.84l-0.32-0.22l-1.36-3.84l-0.29-0.23h-4.97L150.41,17.56z M155.19,14.97l-2.01-6.08l-0.17,0.01l-1.95,6.1
						l0.11,0.24h3.87L155.19,14.97z"/>
					<path fill="#3171CA" d="M189.87,6.69v14.64l-0.19,0.29h-2.71l-0.16-0.23V8.92l-0.2-0.18h-6.45l-0.12,0.21v12.48l-0.2,0.19
						h-2.64l-0.21-0.19V6.66l0.15-0.19h12.48L189.87,6.69z"/>
					<path fill="#3171CA" d="M210.18,6.75V18.2l0.13,0.07l7.29-11.8h2.89l0.22,0.19v14.6l-0.19,0.36h-2.29l-0.23-0.23V10.3
						l-0.12-0.07l-7.04,11.38h-3.21l-0.2-0.26V6.69l0.2-0.22l2.36,0.03L210.18,6.75z"/>
					<path fill="#3171CA" d="M241.29,8.79h-4.42l-0.19-0.23v-1.9l0.19-0.19h12.28l0.19,0.26V8.6l-0.16,0.19h-4.51l-0.16,0.2v12.41
						l-0.2,0.23h-2.74l-0.12-0.23V8.92L241.29,8.79z"/>
					<path fill="#3171CA" d="M296.32,6.66v5.68l0.16,0.2h6.74l0.18-0.3V6.69l0.2-0.22h2.67l0.19,0.16v14.8l-0.19,0.19h-2.71
						l-0.17-0.19v-6.26l-0.22-0.22h-6.71l-0.16,0.16v6.29l-0.16,0.23h-2.71l-0.19-0.29V6.69l0.16-0.22h2.71L296.32,6.66z"/>
					<path fill="#3171CA" d="M266.7,17.56l-1.27,3.77l-0.32,0.28h-2.74l-0.11-0.26l5.2-14.67l0.29-0.22h3.48l0.3,0.25l5.25,14.59
						l-0.1,0.31h-2.83l-0.32-0.22l-1.36-3.84l-0.29-0.23h-4.96L266.7,17.56z M271.49,14.97l-2.01-6.08l-0.17,0.01l-1.94,6.1
						l0.11,0.24h3.87L271.49,14.97z"/>
				</g>
				<g>
					<path fill="#3171CA" d="M126.26,33.6v10.23l0.36,0.41h12.04l0.36-0.45V33.52l0.29-0.25h7.09l0.35,0.33v27.82l-0.35,0.39h-7
						l-0.37-0.39V50.11l-0.27-0.24h-12.16l-0.32,0.41v11.13l-0.37,0.39h-7.05l-0.35-0.39V33.56l0.31-0.29h7.09L126.26,33.6z"/>
					<path fill="#3171CA" d="M191.09,49.74H179.1l-0.26,0.28v6.1l0.34,0.39h13.37l0.36,0.29v4.65l-0.36,0.35h-21.14l-0.34-0.44
						V33.56l0.34-0.29h20.27l0.53,0.36v4.51l-0.46,0.42h-12.6l-0.3,0.29v5.33l0.34,0.31h11.78l0.48,0.29v4.47v0.13L191.09,49.74z"/>
					<path fill="#3171CA" d="M244.11,39.63l-6.98,17.01l-0.64,0.58h-5.87l-0.58-0.67l-6.35-16.85l-0.31,0.06l-1.16,21.6l-0.39,0.46
						h-6.51l-0.26-0.37l2.12-27.69l0.5-0.49h9.35l0.64,0.41l6.02,16.95l0.23-0.05l6.77-16.86l0.65-0.44h9.15l0.5,0.48l1.82,27.6
						l-0.25,0.46h-6.99l-0.31-0.33l-0.78-21.79L244.11,39.63z"/>
					<path fill="#3171CA" d="M307.44,47.24c0,9.36-6.81,15.03-16.82,15.03c-10.17,0-16.11-6.39-16.11-14.53
						c0-8.55,6.55-14.94,16.67-14.94C301.69,32.8,307.44,39.37,307.44,47.24z M282.69,47.63c0,5.59,3.15,9.52,8.33,9.52
						c5.23,0,8.23-4.15,8.23-9.7c0-5.12-2.95-9.52-8.28-9.52C285.74,37.93,282.69,42.08,282.69,47.63z"/>
				</g>
				<g>
					<path fill-rule="evenodd" clip-rule="evenodd" fill="#80AAE1" d="M61.37,62.66c2.93-2.69,11.08-4.46,18.83-0.51
						c4.42,2.25,3.79,6.9,1.89,10.74c-2.31,4.67-4.25,6.63-9.11,4.15c-1.73-0.89-7.78-5.3-10.35-8.86
						C61.57,66.71,60.03,63.89,61.37,62.66"/>
					<path fill-rule="evenodd" clip-rule="evenodd" fill="#80AAE1" d="M62.22,63.3c-2.15,0.44-2.24,4.02-2.03,6.04
						c0.54,4.87,4.2,12.53,5.49,14.35c3.6,5.13,6.82,4.32,12.07,1.11c4.31-2.63,7.78-6.77,4.51-11.43
						C76.53,65.2,66.91,62.35,62.22,63.3"/>
					<path fill-rule="evenodd" clip-rule="evenodd" fill="#80AAE1" d="M64.86,67.76c-2.4-0.75-4.58,2.5-5.52,4.49
						c-2.28,4.78-3.04,13.81-2.81,16.19c0.64,6.66,4.33,7.64,11.45,7.49c5.84-0.12,11.72-2.08,11.14-8.13
						C78.1,77.19,70.11,69.4,64.86,67.76"/>
					<path fill-rule="evenodd" clip-rule="evenodd" fill="#80AAE1" d="M64.93,73.29c-1.97-1.99-6.04-0.14-8.13,1.18
						c-5.05,3.19-11.03,11.12-12.18,13.43c-3.22,6.49-0.08,9.36,7.14,13.05c5.92,3.02,12.94,4.37,15.86-1.53
						C72.74,89.09,69.24,77.62,64.93,73.29"/>
					<path fill-rule="evenodd" clip-rule="evenodd" fill="#80AAE1" d="M61.8,78.43c-0.83-2.89-5.96-3.37-8.82-3.27
						C46.07,75.4,35.49,79.51,33,81.03c-6.98,4.26-5.5,8.61-0.4,15.87c4.18,5.96,10.43,10.97,16.77,7.09
						C60.47,97.2,63.61,84.74,61.8,78.43"/>
					<path fill-rule="evenodd" clip-rule="evenodd" fill="#80AAE1" d="M55.69,81.5c0.84-3.11-4.03-6.3-6.94-7.75
						c-7.06-3.49-20.03-5.37-23.41-5.3c-9.45,0.2-10.48,4.99-9.58,14.43c0.74,7.74,4.1,15.71,12.7,15.53
						C43.5,98.1,53.86,88.28,55.69,81.5"/>
					<path fill-rule="evenodd" clip-rule="evenodd" fill="#80AAE1" d="M47.79,81.05c2.64-2.41-0.38-7.97-2.47-10.87
						c-5.05-7-16.96-15.69-20.38-17.43C15.35,47.85,11.55,51.72,7,60.92c-3.74,7.54-4.98,16.7,3.73,21.14
						C25.98,89.84,42.03,86.33,47.79,81.05"/>
					<path fill-rule="evenodd" clip-rule="evenodd" fill="#80AAE1" d="M40.14,76.4c4.04-0.81,4.23-7.56,3.81-11.36
						c-1.01-9.17-7.91-23.57-10.32-27.02c-6.77-9.64-12.82-8.11-22.71-2.07c-8.11,4.96-14.65,12.74-8.5,21.51
						C13.21,72.82,31.32,78.19,40.14,76.4"/>
					<path fill-rule="evenodd" clip-rule="evenodd" fill="#80AAE1" d="M35.07,68.14c4.52,1.41,8.61-4.71,10.39-8.43
						c4.29-9.01,5.71-26,5.29-30.47C49.55,16.7,42.6,14.87,29.2,15.14c-10.99,0.23-22.04,3.91-20.95,15.3
						C10.16,50.39,25.2,65.06,35.07,68.14"/>
					<path fill-rule="evenodd" clip-rule="evenodd" fill="#80AAE1" d="M35.12,57.67c3.71,3.72,11.36,0.26,15.29-2.22
						c9.51-6,20.77-20.93,22.92-25.28c6.05-12.21,0.15-17.63-13.43-24.55C48.76-0.06,35.56-2.6,30.06,8.5
						C20.44,27.94,27.01,49.53,35.12,57.67"/>
					<path fill-rule="evenodd" clip-rule="evenodd" fill="#80AAE1" d="M43.12,50.48c2.04,5.13,11.16,5.47,16.17,5
						c12.11-1.14,29.89-9.68,33.96-12.7c11.42-8.44,7.96-16.13-2.46-28.73C82.24,3.7,70.25-4.7,59.88,2.98
						C41.71,16.41,38.68,39.28,43.12,50.48"/>
					<g>
						<path fill-rule="evenodd" clip-rule="evenodd" fill="#80AAE1" d="M50.81,46.18c0.02,4.19,6.97,6.75,10.98,7.69
							c9.7,2.27,26.04,0.7,30.1-0.42c11.38-3.13,11.04-9.51,6.81-21.17c-3.47-9.56-10.19-18.62-20.53-15.78
							C60.05,21.47,50.77,37.05,50.81,46.18"/>
					</g>
					<g>
						<defs>
							<path id="SVGID_1_" d="M47.79,81.05c2.64-2.41-0.38-7.97-2.47-10.87c-5.05-7-16.96-15.69-20.38-17.43
								C15.35,47.85,11.55,51.72,7,60.92c-3.74,7.54-4.98,16.7,3.73,21.14C25.98,89.84,42.03,86.33,47.79,81.05"/>
						</defs>
						<clipPath id="SVGID_2_">
							<use xlink:href="#SVGID_1_"  overflow="visible"/>
						</clipPath>
						<path clip-path="url(#SVGID_2_)" fill="#3171CA" d="M55.69,81.5c0.84-3.11-4.03-6.3-6.94-7.75
							c-7.06-3.49-20.03-5.37-23.41-5.3c-9.45,0.2-10.48,4.99-9.58,14.43c0.74,7.74,4.1,15.71,12.7,15.53
							C43.5,98.1,53.86,88.28,55.69,81.5"/>
					</g>
					<g>
						<defs>
							<path id="SVGID_3_" d="M55.69,81.5c0.84-3.11-4.03-6.3-6.94-7.75c-7.06-3.49-20.03-5.37-23.41-5.3
								c-9.45,0.2-10.48,4.99-9.58,14.43c0.74,7.74,4.1,15.71,12.7,15.53C43.5,98.1,53.86,88.28,55.69,81.5"/>
						</defs>
						<clipPath id="SVGID_4_">
							<use xlink:href="#SVGID_3_"  overflow="visible"/>
						</clipPath>
						<path clip-path="url(#SVGID_4_)" fill="#3171CA" d="M61.8,78.43c-0.83-2.89-5.96-3.37-8.82-3.27
							C46.07,75.4,35.49,79.51,33,81.03c-6.98,4.26-5.5,8.61-0.4,15.87c4.18,5.96,10.43,10.97,16.77,7.09
							C60.47,97.2,63.61,84.74,61.8,78.43"/>
					</g>
					<g>
						<defs>
							<path id="SVGID_5_" d="M61.8,78.43c-0.83-2.89-5.96-3.37-8.82-3.27C46.07,75.4,35.49,79.51,33,81.03
								c-6.98,4.26-5.5,8.61-0.4,15.87c4.18,5.96,10.43,10.97,16.77,7.09C60.47,97.2,63.61,84.74,61.8,78.43"/>
						</defs>
						<clipPath id="SVGID_6_">
							<use xlink:href="#SVGID_5_"  overflow="visible"/>
						</clipPath>
						<path clip-path="url(#SVGID_6_)" fill="#3171CA" d="M64.93,73.29c-1.97-1.99-6.04-0.14-8.13,1.18
							c-5.05,3.19-11.03,11.12-12.18,13.43c-3.22,6.49-0.08,9.36,7.14,13.05c5.92,3.02,12.94,4.37,15.86-1.53
							C72.74,89.09,69.24,77.62,64.93,73.29"/>
					</g>
					<g>
						<defs>
							<path id="SVGID_7_" d="M64.93,73.29c-1.97-1.99-6.04-0.14-8.13,1.18c-5.05,3.19-11.03,11.12-12.18,13.43
								c-3.22,6.49-0.08,9.36,7.14,13.05c5.92,3.02,12.94,4.37,15.86-1.53C72.74,89.09,69.24,77.62,64.93,73.29"/>
						</defs>
						<clipPath id="SVGID_8_">
							<use xlink:href="#SVGID_7_"  overflow="visible"/>
						</clipPath>
						<path clip-path="url(#SVGID_8_)" fill="#3171CA" d="M64.86,67.76c-2.4-0.75-4.58,2.5-5.52,4.49
							c-2.28,4.78-3.04,13.81-2.81,16.19c0.64,6.66,4.33,7.64,11.45,7.49c5.84-0.12,11.72-2.08,11.14-8.13
							C78.1,77.19,70.11,69.4,64.86,67.76"/>
					</g>
					<g>
						<defs>
							<path id="SVGID_9_" d="M64.86,67.76c-2.4-0.75-4.58,2.5-5.52,4.49c-2.28,4.78-3.04,13.81-2.81,16.19
								c0.64,6.66,4.33,7.64,11.45,7.49c5.84-0.12,11.72-2.08,11.14-8.13C78.1,77.19,70.11,69.4,64.86,67.76"/>
						</defs>
						<clipPath id="SVGID_10_">
							<use xlink:href="#SVGID_9_"  overflow="visible"/>
						</clipPath>
						<path clip-path="url(#SVGID_10_)" fill="#3171CA" d="M62.22,63.3c-2.15,0.44-2.24,4.02-2.03,6.04
							c0.54,4.87,4.2,12.53,5.49,14.35c3.6,5.13,6.82,4.32,12.07,1.11c4.31-2.63,7.78-6.77,4.51-11.43
							C76.53,65.2,66.91,62.35,62.22,63.3"/>
					</g>
					<g>
						<defs>
							<path id="SVGID_11_" d="M62.22,63.3c-2.15,0.44-2.24,4.02-2.03,6.04c0.54,4.87,4.2,12.53,5.49,14.35
								c3.6,5.13,6.82,4.32,12.07,1.11c4.31-2.63,7.78-6.77,4.51-11.43C76.53,65.2,66.91,62.35,62.22,63.3"/>
						</defs>
						<clipPath id="SVGID_12_">
							<use xlink:href="#SVGID_11_"  overflow="visible"/>
						</clipPath>
						<path clip-path="url(#SVGID_12_)" fill="#3171CA" d="M61.37,62.66c2.93-2.69,11.08-4.46,18.83-0.51
							c4.42,2.25,3.79,6.9,1.89,10.74c-2.31,4.67-4.25,6.63-9.11,4.15c-1.73-0.89-7.78-5.3-10.35-8.86
							C61.57,66.71,60.03,63.89,61.37,62.66"/>
					</g>
					<g>
						<defs>
							<path id="SVGID_13_" d="M40.14,76.4c4.04-0.81,4.23-7.56,3.81-11.36c-1.01-9.17-7.91-23.57-10.32-27.02
								c-6.77-9.64-12.82-8.11-22.71-2.07c-8.11,4.96-14.65,12.74-8.5,21.51C13.21,72.82,31.32,78.19,40.14,76.4"/>
						</defs>
						<clipPath id="SVGID_14_">
							<use xlink:href="#SVGID_13_"  overflow="visible"/>
						</clipPath>
						<path clip-path="url(#SVGID_14_)" fill="#3171CA" d="M47.79,81.05c2.64-2.41-0.38-7.97-2.47-10.87
							c-5.05-7-16.96-15.69-20.38-17.43C15.35,47.85,11.55,51.72,7,60.92c-3.74,7.54-4.98,16.7,3.73,21.14
							C25.98,89.84,42.03,86.33,47.79,81.05"/>
					</g>
					<g>
						<defs>
							<path id="SVGID_15_" d="M35.07,68.14c4.52,1.41,8.61-4.71,10.39-8.43c4.29-9.01,5.71-26,5.29-30.47
								C49.55,16.7,42.6,14.87,29.2,15.14c-10.99,0.23-22.04,3.91-20.95,15.3C10.16,50.39,25.2,65.06,35.07,68.14"/>
						</defs>
						<clipPath id="SVGID_16_">
							<use xlink:href="#SVGID_15_"  overflow="visible"/>
						</clipPath>
						<path clip-path="url(#SVGID_16_)" fill="#3171CA" d="M40.14,76.4c4.04-0.81,4.23-7.56,3.81-11.36
							c-1.01-9.17-7.91-23.57-10.32-27.02c-6.77-9.64-12.82-8.11-22.71-2.07c-8.11,4.96-14.65,12.74-8.5,21.51
							C13.21,72.82,31.32,78.19,40.14,76.4"/>
					</g>
					<g>
						<defs>
							<path id="SVGID_17_" d="M35.12,57.67c3.71,3.72,11.36,0.26,15.29-2.22c9.51-6,20.77-20.93,22.92-25.28
								c6.05-12.21,0.15-17.63-13.43-24.55C48.76-0.06,35.56-2.6,30.06,8.5C20.44,27.94,27.01,49.53,35.12,57.67"/>
						</defs>
						<clipPath id="SVGID_18_">
							<use xlink:href="#SVGID_17_"  overflow="visible"/>
						</clipPath>
						<path clip-path="url(#SVGID_18_)" fill="#3171CA" d="M35.07,68.14c4.52,1.41,8.61-4.71,10.39-8.43
							c4.29-9.01,5.71-26,5.29-30.47C49.55,16.7,42.6,14.87,29.2,15.14c-10.99,0.23-22.04,3.91-20.95,15.3
							C10.16,50.39,25.2,65.06,35.07,68.14"/>
					</g>
					<g>
						<defs>
							<path id="SVGID_19_" d="M50.81,46.18c0.02,4.19,6.97,6.75,10.98,7.69c9.7,2.27,26.04,0.7,30.1-0.42
								c11.38-3.13,11.04-9.51,6.81-21.17c-3.47-9.56-10.19-18.62-20.53-15.78C60.05,21.47,50.77,37.05,50.81,46.18"/>
						</defs>
						<clipPath id="SVGID_20_">
							<use xlink:href="#SVGID_19_"  overflow="visible"/>
						</clipPath>
						<path clip-path="url(#SVGID_20_)" fill="#3171CA" d="M43.12,50.48c2.04,5.13,11.16,5.47,16.17,5
							c12.11-1.14,29.89-9.68,33.96-12.7c11.42-8.44,7.96-16.13-2.46-28.73C82.24,3.7,70.25-4.7,59.88,2.98
							C41.71,16.41,38.68,39.28,43.12,50.48"/>
					</g>
					<g>
						<defs>
							<path id="SVGID_21_" d="M35.12,57.67c3.71,3.72,11.36,0.26,15.29-2.22c9.51-6,20.77-20.93,22.92-25.28
								c6.05-12.21,0.15-17.63-13.43-24.55C48.76-0.06,35.56-2.6,30.06,8.5C20.44,27.94,27.01,49.53,35.12,57.67"/>
						</defs>
						<clipPath id="SVGID_22_">
							<use xlink:href="#SVGID_21_"  overflow="visible"/>
						</clipPath>
						<path clip-path="url(#SVGID_22_)" fill="#0047A9" d="M40.14,76.4c4.04-0.81,4.23-7.56,3.81-11.36
							c-1.01-9.17-7.91-23.57-10.32-27.02c-6.77-9.64-12.82-8.11-22.71-2.07c-8.11,4.96-14.65,12.74-8.5,21.51
							C13.21,72.82,31.32,78.19,40.14,76.4"/>
					</g>
					<g>
						<defs>
							<path id="SVGID_23_" d="M35.07,68.14c4.52,1.41,8.61-4.71,10.39-8.43c4.29-9.01,5.71-26,5.29-30.47
								C49.55,16.7,42.6,14.87,29.2,15.14c-10.99,0.23-22.04,3.91-20.95,15.3C10.16,50.39,25.2,65.06,35.07,68.14"/>
						</defs>
						<clipPath id="SVGID_24_">
							<use xlink:href="#SVGID_23_"  overflow="visible"/>
						</clipPath>
						<path clip-path="url(#SVGID_24_)" fill="#0047A9" d="M47.79,81.05c2.64-2.41-0.38-7.97-2.47-10.87
							c-5.05-7-16.96-15.69-20.38-17.43C15.35,47.85,11.55,51.72,7,60.92c-3.74,7.54-4.98,16.7,3.73,21.14
							C25.98,89.84,42.03,86.33,47.79,81.05"/>
					</g>
					<g>
						<defs>
							<path id="SVGID_25_" d="M40.14,76.4c4.04-0.81,4.23-7.56,3.81-11.36c-1.01-9.17-7.91-23.57-10.32-27.02
								c-6.77-9.64-12.82-8.11-22.71-2.07c-8.11,4.96-14.65,12.74-8.5,21.51C13.21,72.82,31.32,78.19,40.14,76.4"/>
						</defs>
						<clipPath id="SVGID_26_">
							<use xlink:href="#SVGID_25_"  overflow="visible"/>
						</clipPath>
						<path clip-path="url(#SVGID_26_)" fill="#0047A9" d="M55.69,81.5c0.84-3.11-4.03-6.3-6.94-7.75
							c-7.06-3.49-20.03-5.37-23.41-5.3c-9.45,0.2-10.48,4.99-9.58,14.43c0.74,7.74,4.1,15.71,12.7,15.53
							C43.5,98.1,53.86,88.28,55.69,81.5"/>
					</g>
					<g>
						<defs>
							<path id="SVGID_27_" d="M47.79,81.05c2.64-2.41-0.38-7.97-2.47-10.87c-5.05-7-16.96-15.69-20.38-17.43
								C15.35,47.85,11.55,51.72,7,60.92c-3.74,7.54-4.98,16.7,3.73,21.14C25.98,89.84,42.03,86.33,47.79,81.05"/>
						</defs>
						<clipPath id="SVGID_28_">
							<use xlink:href="#SVGID_27_"  overflow="visible"/>
						</clipPath>
						<path clip-path="url(#SVGID_28_)" fill="#0047A9" d="M61.8,78.43c-0.83-2.89-5.96-3.37-8.82-3.27
							C46.07,75.4,35.49,79.51,33,81.03c-6.98,4.26-5.5,8.61-0.4,15.87c4.18,5.96,10.43,10.97,16.77,7.09
							C60.47,97.2,63.61,84.74,61.8,78.43"/>
					</g>
					<g>
						<defs>
							<path id="SVGID_29_" d="M55.69,81.5c0.84-3.11-4.03-6.3-6.94-7.75c-7.06-3.49-20.03-5.37-23.41-5.3
								c-9.45,0.2-10.48,4.99-9.58,14.43c0.74,7.74,4.1,15.71,12.7,15.53C43.5,98.1,53.86,88.28,55.69,81.5"/>
						</defs>
						<clipPath id="SVGID_30_">
							<use xlink:href="#SVGID_29_"  overflow="visible"/>
						</clipPath>
						<path clip-path="url(#SVGID_30_)" fill="#0047A9" d="M64.93,73.29c-1.97-1.99-6.04-0.14-8.13,1.18
							c-5.05,3.19-11.03,11.12-12.18,13.43c-3.22,6.49-0.08,9.36,7.14,13.05c5.92,3.02,12.94,4.37,15.86-1.53
							C72.74,89.09,69.24,77.62,64.93,73.29"/>
					</g>
					<g>
						<defs>
							<path id="SVGID_31_" d="M61.8,78.43c-0.83-2.89-5.96-3.37-8.82-3.27C46.07,75.4,35.49,79.51,33,81.03
								c-6.98,4.26-5.5,8.61-0.4,15.87c4.18,5.96,10.43,10.97,16.77,7.09C60.47,97.2,63.61,84.74,61.8,78.43"/>
						</defs>
						<clipPath id="SVGID_32_">
							<use xlink:href="#SVGID_31_"  overflow="visible"/>
						</clipPath>
						<path clip-path="url(#SVGID_32_)" fill="#0047A9" d="M64.86,67.76c-2.4-0.75-4.58,2.5-5.52,4.49
							c-2.28,4.78-3.04,13.81-2.81,16.19c0.64,6.66,4.33,7.64,11.45,7.49c5.84-0.12,11.72-2.08,11.14-8.13
							C78.1,77.19,70.11,69.4,64.86,67.76"/>
					</g>
					<g>
						<defs>
							<path id="SVGID_33_" d="M64.93,73.29c-1.97-1.99-6.04-0.14-8.13,1.18c-5.05,3.19-11.03,11.12-12.18,13.43
								c-3.22,6.49-0.08,9.36,7.14,13.05c5.92,3.02,12.94,4.37,15.86-1.53C72.74,89.09,69.24,77.62,64.93,73.29"/>
						</defs>
						<clipPath id="SVGID_34_">
							<use xlink:href="#SVGID_33_"  overflow="visible"/>
						</clipPath>
						<path clip-path="url(#SVGID_34_)" fill="#0047A9" d="M62.22,63.3c-2.15,0.44-2.24,4.02-2.03,6.04
							c0.54,4.87,4.2,12.53,5.49,14.35c3.6,5.13,6.82,4.32,12.07,1.11c4.31-2.63,7.78-6.77,4.51-11.43
							C76.53,65.2,66.91,62.35,62.22,63.3"/>
					</g>
					<g>
						<defs>
							<path id="SVGID_35_" d="M64.86,67.76c-2.4-0.75-4.58,2.5-5.52,4.49c-2.28,4.78-3.04,13.81-2.81,16.19
								c0.64,6.66,4.33,7.64,11.45,7.49c5.84-0.12,11.72-2.08,11.14-8.13C78.1,77.19,70.11,69.4,64.86,67.76"/>
						</defs>
						<clipPath id="SVGID_36_">
							<use xlink:href="#SVGID_35_"  overflow="visible"/>
						</clipPath>
						<path clip-path="url(#SVGID_36_)" fill="#0047A9" d="M61.37,62.66c2.93-2.69,11.08-4.46,18.83-0.51
							c4.42,2.25,3.79,6.9,1.89,10.74c-2.31,4.67-4.25,6.63-9.11,4.15c-1.73-0.89-7.78-5.3-10.35-8.86
							C61.57,66.71,60.03,63.89,61.37,62.66"/>
					</g>
					<g>
						<defs>
							<path id="SVGID_37_" d="M43.12,50.48c2.04,5.13,11.16,5.47,16.17,5c12.11-1.14,29.89-9.68,33.96-12.7
								c11.42-8.44,7.96-16.13-2.46-28.73C82.24,3.7,70.25-4.7,59.88,2.98C41.71,16.41,38.68,39.28,43.12,50.48"/>
						</defs>
						<clipPath id="SVGID_38_">
							<use xlink:href="#SVGID_37_"  overflow="visible"/>
						</clipPath>
						<path clip-path="url(#SVGID_38_)" fill="#3171CA" d="M35.12,57.67c3.71,3.72,11.36,0.26,15.29-2.22
							c9.51-6,20.77-20.93,22.92-25.28c6.05-12.21,0.15-17.63-13.43-24.55C48.76-0.06,35.56-2.6,30.06,8.5
							C20.44,27.94,27.01,49.53,35.12,57.67"/>
					</g>
					<g>
						<defs>
							<path id="SVGID_39_" d="M43.12,50.48c2.04,5.13,11.16,5.47,16.17,5c12.11-1.14,29.89-9.68,33.96-12.7
								c11.42-8.44,7.96-16.13-2.46-28.73C82.24,3.7,70.25-4.7,59.88,2.98C41.71,16.41,38.68,39.28,43.12,50.48"/>
						</defs>
						<clipPath id="SVGID_40_">
							<use xlink:href="#SVGID_39_"  overflow="visible"/>
						</clipPath>
						<path clip-path="url(#SVGID_40_)" fill="#0047A9" d="M35.07,68.14c4.52,1.41,8.61-4.71,10.39-8.43
							c4.29-9.01,5.71-26,5.29-30.47C49.55,16.7,42.6,14.87,29.2,15.14c-10.99,0.23-22.04,3.91-20.95,15.3
							C10.16,50.39,25.2,65.06,35.07,68.14"/>
					</g>
					<g>
						<defs>
							<path id="SVGID_41_" d="M50.81,46.18c0.02,4.19,6.97,6.75,10.98,7.69c9.7,2.27,26.04,0.7,30.1-0.42
								c11.38-3.13,11.04-9.51,6.81-21.17c-3.47-9.56-10.19-18.62-20.53-15.78C60.05,21.47,50.77,37.05,50.81,46.18"/>
						</defs>
						<clipPath id="SVGID_42_">
							<use xlink:href="#SVGID_41_"  overflow="visible"/>
						</clipPath>
						<path clip-path="url(#SVGID_42_)" fill="#0047A9" d="M35.12,57.67c3.71,3.72,11.36,0.26,15.29-2.22
							c9.51-6,20.77-20.93,22.92-25.28c6.05-12.21,0.15-17.63-13.43-24.55C48.76-0.06,35.56-2.6,30.06,8.5
							C20.44,27.94,27.01,49.53,35.12,57.67"/>
					</g>
				</g>
			</g>
			<g>
				<path fill="#0047A9" stroke="#0047A9" stroke-width="0.1229" stroke-miterlimit="10" d="M153.93,93.41l-1.53,6.98
					c-0.16,0.68-0.24,1.17-0.24,1.45c0,0.15,0.05,0.35,0.15,0.58c-0.82,0.38-1.56,0.57-2.23,0.57c-0.43,0-0.65-0.15-0.65-0.47
					c0-0.15,0.08-0.61,0.24-1.38l1.69-7.73h-0.5c-1.2,0-2.43,0.3-3.7,0.9c0.34-0.89,0.79-1.5,1.35-1.81
					c0.56-0.31,1.47-0.47,2.73-0.47h0.43l1.26-5.75c-0.72,0.09-1.38,0.14-2,0.14c-1.28,0-2.04-0.77-2.28-2.31
					c0.58,0.44,1.37,0.66,2.37,0.66c1.29,0,2.92-0.12,4.88-0.35l-1.67,7.61h6.4c0.77-3.16,1.58-5.5,2.44-7.04
					c0.47-0.84,0.89-1.37,1.28-1.59c0.38-0.22,1.13-0.36,2.26-0.44c0.13-0.01,0.34-0.03,0.62-0.04c-1.92,2.01-3.29,5.06-4.09,9.12
					h0.22c0.64,0,1.42-0.26,2.36-0.78c-0.19,1.44-0.98,2.16-2.35,2.16h-0.54c-0.24,1.15-0.37,2.36-0.37,3.64
					c0,2.12,0.72,3.18,2.16,3.18c0.59,0,8.53-5.02,9.25-5.48c-0.02,0.21,0.35,0.53-0.43,1.12c-2.03,1.56-6.57,4.86-7.73,5.32
					c-0.61,0.24-1.29,0.55-2.28,0.55c-2.33,0-3.5-1.61-3.5-4.85c0-1.09,0.14-2.26,0.42-3.49H153.93z"/>
				<path fill="#0047A9" stroke="#0047A9" stroke-width="0.1206" stroke-miterlimit="10" d="M187.89,92.74
					c0.03,0.19,0.04,0.37,0.04,0.53c0,2.35-0.84,4.4-2.53,6.15c-1.69,1.75-3.66,2.63-5.92,2.63c-1.73,0-3.13-0.53-4.22-1.57
					c-1.09-1.04-1.63-2.4-1.63-4.07c0-1.89,0.7-3.54,2.11-4.93c1.41-1.4,3.06-2.09,4.97-2.09c0.29,0,0.6,0.04,0.93,0.11
					c-0.22-0.37-0.32-0.68-0.32-0.93c0-0.39,0.14-0.76,0.42-1.12c2.1,0.16,3.85,1.17,5.24,3.05c1.43,0.92,4.19,1.62,5.74,1.58
					c4.83-0.15,6.53-2.63,7.69-3.27l0.26,0.93c-1.37,0.9-3.02,3.38-8.25,3.77C191.46,93.57,189.1,93.11,187.89,92.74 M184.96,91.71
					c-0.71-0.2-1.37-0.53-1.97-0.98c-0.44-0.09-0.8-0.14-1.1-0.14c-1.46,0-2.76,0.62-3.89,1.87c-1.13,1.24-1.7,2.66-1.7,4.26
					c0,1.16,0.35,2.11,1.03,2.85c0.68,0.75,1.56,1.12,2.64,1.12c1.45,0,2.71-0.7,3.75-2.09c1.05-1.38,1.58-3.04,1.58-4.96
					C185.3,92.98,185.18,92.33,184.96,91.71"/>
				<path fill="#0047A9" stroke="#0047A9" stroke-width="0.1213" stroke-miterlimit="10" d="M195.53,90.78
					c-0.32-0.34-0.48-0.76-0.48-1.24c0-1.23,1.11-2.38,3.33-3.44c2.22-1.07,4.6-1.6,7.15-1.6c3.92,0,5.87,1.17,5.87,3.5
					c0,1.13-0.42,2.09-1.26,2.89c-0.84,0.79-2.31,1.62-4.4,2.48c1.89,4.03,3.28,6.5,4.64,6.59c1.69,0.12,8.52-4.96,9.35-5.91
					c0.04,0.19-0.23,0.96-0.23,1.03c0,0.62-7.21,6.66-10.18,6.79c-1.85,0.08-3.58-2.92-5.67-7.63c-0.42,0.11-0.8,0.16-1.14,0.16
					c-0.16,0-0.32-0.03-0.46-0.09c0.29-1.4,1.03-2.1,2.23-2.1c0.24,0,0.53,0.05,0.88,0.13c2.59-0.81,3.88-2.17,3.88-4.05
					c0-0.69-0.37-1.26-1.11-1.71c-0.74-0.44-1.68-0.67-2.82-0.67c-1.94,0-3.81,0.45-5.6,1.36C197.7,88.2,196.38,89.36,195.53,90.78
					 M199.79,102.41c-0.81,0.38-1.54,0.57-2.19,0.57c-0.41,0-0.62-0.15-0.62-0.47c0-0.16,0.09-0.62,0.27-1.39l2.27-10.74
					c0.13-0.62,0.2-1.07,0.2-1.34c0-0.26-0.09-0.5-0.29-0.71c1.05-0.37,1.78-0.56,2.19-0.56c0.5,0,0.75,0.27,0.75,0.8
					c0,0.12-0.13,0.77-0.39,1.94l-2.1,9.86c-0.15,0.68-0.22,1.17-0.22,1.45C199.68,101.99,199.71,102.18,199.79,102.41"/>
				<path fill="#0047A9" stroke="#0047A9" stroke-width="0.1237" stroke-miterlimit="10" d="M221.44,96.65
					c0,2.38,1.12,3.59,3.37,3.57c2.89-0.03,8.61-3.81,11.38-5.61c2.42-1.58,3.78-2.53,5.21-3.42l-0.32,0.79
					c-1.25,1.72-0.53,0.68-5.12,4.1c-2.77,2.06-8.52,5.91-12.22,5.97c-1.63,0.03-2.92-0.47-3.86-1.42
					c-0.95-0.94-1.42-2.23-1.42-3.86c0-2.37,0.86-4.38,2.57-6.06c1.71-1.67,3.78-2.51,6.19-2.51c1.16,0,2.1,0.27,2.8,0.79
					c0.7,0.53,1.05,1.24,1.05,2.12c0,1.45-0.97,2.74-2.93,3.87C226.21,96.09,223.97,96.65,221.44,96.65 M221.55,95.48
					c1.89-0.09,3.51-0.58,4.86-1.46c1.35-0.88,2.03-1.91,2.03-3.06c0-1.04-0.51-1.56-1.55-1.56c-1.23,0-2.36,0.59-3.4,1.77
					C222.45,92.36,221.8,93.79,221.55,95.48"/>
				<path fill="#0047A9" stroke="#0047A9" stroke-width="0.1177" stroke-miterlimit="10" d="M260.57,90.61
					c0.14,0.33-1.23,1.71-1.23,1.91c0,0.19-4.58,4.3-4.58,4.3s-3.31,2.82-4.63,3.55c-1.66,0.92-3.36,1.37-5.1,1.37
					c-1.91,0-3.41-0.55-4.52-1.65c-1.1-1.1-1.66-2.61-1.66-4.53c0-3.02,0.99-5.63,2.99-7.8c1.99-2.17,4.38-3.26,7.16-3.26
					c1.13,0,2.08,0.2,2.86,0.6c0.78,0.4,1.17,0.89,1.17,1.47c0,0.52-0.34,1.09-1.01,1.71c-0.9-1.78-2.18-2.68-3.83-2.68
					c-1.81,0-3.39,0.94-4.74,2.79c-1.34,1.87-2.02,4.04-2.02,6.53c0,1.59,0.41,2.85,1.21,3.77c0.81,0.93,1.9,1.39,3.28,1.39
					c2.22,0,6.86-3.24,6.86-3.24l8.13-6.27"/>
				<path fill="#0047A9" stroke="#0047A9" stroke-width="0.1222" stroke-miterlimit="10" d="M268.34,94.28
					c-1.13,2.15-2.53,3.99-4.18,5.5c-1.65,1.51-3.1,2.27-4.33,2.27c-0.93,0-1.69-0.39-2.25-1.16c-0.56-0.77-0.84-1.8-0.84-3.07
					c0-2.55,0.83-4.78,2.51-6.72c1.68-1.94,3.61-2.91,5.81-2.91c1.33,0,2.77,0.39,4.33,1.15c0.23-0.75,1.16-1.14,2.81-1.14
					c0.11,0,0.28,0,0.52,0.01c-0.5,0.71-0.89,1.68-1.15,2.91l-0.22,1.04c-0.26,1.16-0.38,2.5-0.38,4.05c0,1.78,0.45,2.71,1.35,2.67
					c1.84-0.08,7.2-3.81,9.23-6.41l0.55,0.35c-1.63,2.69-7.36,7.92-10.97,8.32c-1.89,0.21-2.86-1.46-2.86-4.39
					C268.26,96.13,268.28,95.31,268.34,94.28 M268.96,91.36c-1.85-1.11-3.4-1.67-4.63-1.67c-1.33,0-2.48,0.75-3.46,2.24
					c-0.97,1.49-1.46,3.27-1.46,5.31c0,1.65,0.58,2.47,1.75,2.47c1.26,0,3.68-2.55,7.25-7.66
					C268.46,91.98,268.64,91.75,268.96,91.36"/>
			</g>
		</g>
	</g>
</g>
</svg>
