<svg width="133" height="227" viewBox="0 0 133 227" fill="none" xmlns="http://www.w3.org/2000/svg">
<path d="M3.71 154.3V158.39C3.71 158.39 3.68 158.6 3.84 158.58C5.29 158.43 7.53 154.88 7.64 154.34C7.65 154.28 7.8 154.16 7.8 154.16H9.74H9.81C9.81 154.16 9.9 154.3 9.88 154.36C8.4 157.58 6.46 158.81 5.99 158.96C5.91 158.99 5.95 159.07 5.98 159.08C7.25 159.75 8.28999 160.41 9.00999 161.58C9.54999 162.47 9.97 163.3 10.36 164.49C10.38 164.55 10.28 164.66 10.28 164.66H8.16999C8.16999 164.66 7.71 162.88 7.02 162C5.43 159.99 4.00999 160.01 3.84999 160.08C3.68999 160.15 3.72 160.28 3.72 160.28V164.46L3.56 164.66H1.8L1.62 164.46V154.34L1.75999 154.16H3.52L3.71 154.3Z" fill="#3171CA"/>
<path d="M23.72 161.86L22.84 164.47L22.62 164.67H20.72L20.64 164.49L24.24 154.33L24.44 154.18H26.85L27.06 154.35L30.69 164.46L30.62 164.68H28.65L28.43 164.53L27.49 161.86L27.29 161.7H23.85L23.72 161.86ZM27.04 160.06L25.65 155.84L25.53 155.85L24.18 160.08L24.26 160.25H26.94L27.04 160.06Z" fill="#3171CA"/>
<path d="M51.07 154.32V164.46L50.94 164.66H49.06L48.95 164.5V155.85L48.82 155.73H44.35L44.26 155.88V164.53L44.12 164.67H42.29L42.14 164.53V154.3L42.24 154.17H50.89L51.07 154.32Z" fill="#3171CA"/>
<path d="M65.14 154.37V162.3L65.23 162.34L70.29 154.17H72.29L72.44 154.3V164.42L72.31 164.67H70.72L70.56 164.51V156.82L70.48 156.78L65.6 164.67H63.38L63.24 164.49V154.32L63.38 154.17L65.01 154.19L65.14 154.37Z" fill="#3171CA"/>
<path d="M86.71 155.77H83.65L83.52 155.61V154.29L83.65 154.16H92.16L92.29 154.34V155.64L92.18 155.77H89.05L88.94 155.91V164.51L88.8 164.67H86.9L86.82 164.51V155.86L86.71 155.77Z" fill="#3171CA"/>
<path d="M124.85 154.3V158.23L124.96 158.37H129.63L129.76 158.16V154.32L129.9 154.17H131.75L131.88 154.28V164.54L131.75 164.68H129.87L129.75 164.54V160.21L129.6 160.05H124.95L124.84 160.16V164.52L124.73 164.68H122.85L122.72 164.48V154.34L122.83 154.19H124.71L124.85 154.3Z" fill="#3171CA"/>
<path d="M104.32 161.86L103.44 164.47L103.22 164.67H101.32L101.25 164.49L104.85 154.33L105.05 154.18H107.46L107.67 154.35L111.31 164.46L111.24 164.68H109.27L109.05 164.53L108.11 161.86L107.91 161.7H104.47L104.32 161.86ZM107.64 160.06L106.25 155.84L106.13 155.85L104.78 160.08L104.86 160.25H107.54L107.64 160.06Z" fill="#3171CA"/>
<path d="M6.98 174.51V181.6L7.23 181.88H15.57L15.82 181.57V174.45L16.02 174.28H20.93L21.17 174.51V193.79L20.93 194.06H16.07L15.81 193.79V185.95L15.62 185.78H7.2L6.98 186.06V193.78L6.72 194.05H1.83L1.59 193.78V174.48L1.8 174.28H6.72L6.98 174.51Z" fill="#3171CA"/>
<path d="M51.92 185.69H43.61L43.43 185.89V190.12L43.67 190.39H52.94L53.19 190.6V193.82L52.94 194.06H38.27L38.04 193.76V174.49L38.27 174.29H52.32L52.69 174.54V177.67L52.37 177.96H43.64L43.43 178.16V181.85L43.67 182.07H51.83L52.16 182.27V185.37V185.46L51.92 185.69Z" fill="#3171CA"/>
<path d="M88.66 178.68L83.82 190.47L83.38 190.87H79.31L78.91 190.4L74.51 178.72L74.29 178.76L73.48 193.73L73.21 194.05H68.7L68.52 193.8L69.99 174.61L70.33 174.27H76.81L77.25 174.55L81.42 186.3L81.58 186.26L86.28 174.57L86.73 174.26H93.08L93.42 174.59L94.68 193.72L94.51 194.04H89.66L89.45 193.81L88.91 178.71L88.66 178.68Z" fill="#3171CA"/>
<path d="M132.55 183.96C132.55 190.45 127.83 194.38 120.89 194.38C113.85 194.38 109.73 189.95 109.73 184.31C109.73 178.38 114.27 173.95 121.28 173.95C128.57 173.95 132.55 178.5 132.55 183.96ZM115.4 184.22C115.4 188.1 117.58 190.82 121.18 190.82C124.81 190.82 126.88 187.94 126.88 184.1C126.88 180.55 124.84 177.5 121.14 177.5C117.51 177.5 115.4 180.38 115.4 184.22Z" fill="#3171CA"/>
<path d="M1.45 204.26H131.78" stroke="#0047A9" stroke-width="1.6" stroke-miterlimit="10"/>
<path fill-rule="evenodd" clip-rule="evenodd" d="M80.29 82.77C84.11 79.27 94.76 76.94 104.88 82.1C110.66 85.05 109.83 91.12 107.35 96.12C104.33 102.22 101.81 104.79 95.45 101.54C93.18 100.38 85.28 94.62 81.93 89.97C80.54 88.06 78.54 84.38 80.29 82.77Z" fill="#80AAE1"/>
<path fill-rule="evenodd" clip-rule="evenodd" d="M81.39 83.61C78.59 84.18 78.46 88.86 78.75 91.49C79.45 97.85 84.24 107.85 85.92 110.24C90.62 116.94 94.82 115.87 101.68 111.68C107.31 108.24 111.85 102.84 107.58 96.75C100.09 86.1 87.52 82.37 81.39 83.61Z" fill="#80AAE1"/>
<path fill-rule="evenodd" clip-rule="evenodd" d="M84.85 89.43C81.71 88.45 78.87 92.7 77.64 95.29C74.66 101.54 73.67 113.33 73.97 116.44C74.8 125.14 79.63 126.41 88.92 126.22C96.55 126.06 104.22 123.51 103.46 115.6C102.13 101.75 91.7 91.57 84.85 89.43Z" fill="#80AAE1"/>
<path fill-rule="evenodd" clip-rule="evenodd" d="M84.94 96.66C82.36 94.07 77.06 96.47 74.33 98.2C67.73 102.37 59.92 112.72 58.42 115.74C54.22 124.22 58.32 127.97 67.74 132.78C75.47 136.72 84.63 138.48 88.45 130.78C95.12 117.29 90.56 102.3 84.94 96.66Z" fill="#80AAE1"/>
<path fill-rule="evenodd" clip-rule="evenodd" d="M80.85 103.37C79.77 99.6 73.06 98.97 69.33 99.1C60.31 99.41 46.49 104.77 43.24 106.76C34.13 112.33 36.06 117.99 42.72 127.48C48.18 135.26 56.34 141.8 64.62 136.74C79.11 127.88 83.21 111.6 80.85 103.37Z" fill="#80AAE1"/>
<path fill-rule="evenodd" clip-rule="evenodd" d="M72.87 107.38C73.96 103.32 67.61 99.15 63.8 97.26C54.58 92.7 37.64 90.25 33.24 90.34C20.89 90.6 19.55 96.86 20.73 109.18C21.7 119.29 26.09 129.7 37.31 129.46C56.95 129.06 70.47 116.23 72.87 107.38Z" fill="#80AAE1"/>
<path fill-rule="evenodd" clip-rule="evenodd" d="M62.55 106.79C65.99 103.63 62.05 96.37 59.32 92.59C52.72 83.45 37.17 72.1 32.71 69.82C20.19 63.44 15.22 68.49 9.27 80.5C4.39 90.35 2.77 102.31 14.14 108.11C34.07 118.27 55.03 113.68 62.55 106.79Z" fill="#80AAE1"/>
<path fill-rule="evenodd" clip-rule="evenodd" d="M52.56 100.72C57.83 99.65 58.08 90.84 57.54 85.88C56.22 73.9 47.21 55.09 44.05 50.6C35.21 38 27.31 40 14.4 47.89C3.81 54.36 -4.73 64.53 3.31 75.98C17.39 96.04 41.04 103.05 52.56 100.72Z" fill="#80AAE1"/>
<path fill-rule="evenodd" clip-rule="evenodd" d="M45.94 89.93C51.84 91.78 57.19 83.77 59.51 78.91C65.12 67.15 66.98 44.96 66.41 39.12C64.84 22.75 55.77 20.36 38.27 20.72C23.92 21.02 9.48 25.82 10.91 40.69C13.41 66.75 33.05 85.91 45.94 89.93Z" fill="#80AAE1"/>
<path fill-rule="evenodd" clip-rule="evenodd" d="M46 76.26C50.84 81.13 60.83 76.61 65.97 73.36C78.39 65.52 93.09 46.04 95.91 40.34C103.81 24.39 96.1 17.32 78.37 8.28C63.82 0.859996 46.58 -2.45 39.41 12.04C26.83 37.43 35.42 65.63 46 76.26Z" fill="#80AAE1"/>
<path fill-rule="evenodd" clip-rule="evenodd" d="M56.45 66.87C59.11 73.57 71.02 74.01 77.56 73.39C93.37 71.89 116.6 60.75 121.92 56.81C136.83 45.79 132.31 35.75 118.7 19.28C107.54 5.78 91.88 -5.19 78.33 4.82C54.61 22.38 50.65 52.24 56.45 66.87Z" fill="#80AAE1"/>
<path fill-rule="evenodd" clip-rule="evenodd" d="M66.49 61.26C66.51 66.73 75.59 70.07 80.83 71.3C93.5 74.26 114.84 72.2 120.14 70.74C135.01 66.66 134.56 58.32 129.03 43.09C124.5 30.6 115.72 18.77 102.21 22.48C78.56 28.99 66.45 49.33 66.49 61.26Z" fill="#80AAE1"/>
<path d="M72.87 107.38C73.96 103.32 67.61 99.15 63.8 97.26C54.58 92.7 37.64 90.25 33.24 90.34C20.89 90.6 19.55 96.86 20.73 109.18C21.7 119.29 26.09 129.7 37.31 129.46C56.95 129.06 70.47 116.23 72.87 107.38Z" fill="#3171CA"/>
<path d="M80.85 103.37C79.77 99.6 73.06 98.97 69.33 99.1C60.31 99.41 46.49 104.77 43.24 106.76C34.13 112.33 36.06 117.99 42.72 127.48C48.18 135.26 56.34 141.8 64.62 136.74C79.11 127.88 83.21 111.6 80.85 103.37Z" fill="#3171CA"/>
<path d="M84.94 96.66C82.36 94.07 77.06 96.47 74.33 98.2C67.73 102.37 59.92 112.72 58.42 115.74C54.22 124.22 58.32 127.97 67.74 132.78C75.47 136.72 84.63 138.48 88.45 130.78C95.12 117.29 90.56 102.3 84.94 96.66Z" fill="#3171CA"/>
<path d="M84.85 89.43C81.71 88.45 78.87 92.7 77.64 95.29C74.66 101.54 73.67 113.33 73.97 116.44C74.8 125.14 79.63 126.41 88.92 126.22C96.55 126.06 104.22 123.51 103.46 115.6C102.13 101.75 91.7 91.57 84.85 89.43Z" fill="#3171CA"/>
<path d="M81.39 83.61C78.59 84.18 78.46 88.86 78.75 91.49C79.45 97.85 84.24 107.85 85.92 110.24C90.62 116.94 94.82 115.87 101.68 111.68C107.31 108.24 111.85 102.84 107.58 96.75C100.09 86.1 87.52 82.37 81.39 83.61Z" fill="#3171CA"/>
<path d="M80.29 82.77C84.11 79.27 94.76 76.94 104.88 82.1C110.66 85.05 109.83 91.12 107.35 96.12C104.33 102.22 101.81 104.79 95.45 101.54C93.18 100.38 85.28 94.62 81.93 89.97C80.54 88.06 78.54 84.38 80.29 82.77Z" fill="#3171CA"/>
<path d="M62.55 106.79C65.99 103.63 62.05 96.37 59.32 92.59C52.72 83.45 37.17 72.1 32.71 69.82C20.19 63.44 15.22 68.49 9.27 80.5C4.39 90.35 2.77 102.31 14.14 108.11C34.07 118.27 55.03 113.68 62.55 106.79Z" fill="#3171CA"/>
<path d="M52.56 100.72C57.83 99.65 58.08 90.84 57.54 85.88C56.22 73.9 47.21 55.09 44.05 50.6C35.21 38 27.31 40 14.4 47.89C3.81 54.36 -4.73 64.53 3.31 75.98C17.39 96.04 41.04 103.05 52.56 100.72Z" fill="#3171CA"/>
<path d="M45.94 89.93C51.84 91.78 57.19 83.77 59.51 78.91C65.12 67.15 66.98 44.96 66.41 39.12C64.84 22.75 55.77 20.36 38.27 20.72C23.92 21.02 9.48 25.82 10.91 40.69C13.41 66.75 33.05 85.91 45.94 89.93Z" fill="#3171CA"/>
<path d="M56.45 66.87C59.11 73.57 71.02 74.01 77.56 73.39C93.37 71.89 116.6 60.75 121.92 56.81C136.83 45.79 132.31 35.75 118.7 19.28C107.54 5.78 91.88 -5.19 78.33 4.82C54.61 22.38 50.65 52.24 56.45 66.87Z" fill="#3171CA"/>
<path d="M52.56 100.72C57.83 99.65 58.08 90.84 57.54 85.88C56.22 73.9 47.21 55.09 44.05 50.6C35.21 38 27.31 40 14.4 47.89C3.81 54.36 -4.73 64.53 3.31 75.98C17.39 96.04 41.04 103.05 52.56 100.72Z" fill="#0047A9"/>
<path d="M62.55 106.79C65.99 103.63 62.05 96.37 59.32 92.59C52.72 83.45 37.17 72.1 32.71 69.82C20.19 63.44 15.22 68.49 9.27 80.5C4.39 90.35 2.77 102.31 14.14 108.11C34.07 118.27 55.03 113.68 62.55 106.79Z" fill="#0047A9"/>
<path d="M72.87 107.38C73.96 103.32 67.61 99.15 63.8 97.26C54.58 92.7 37.64 90.25 33.24 90.34C20.89 90.6 19.55 96.86 20.73 109.18C21.7 119.29 26.09 129.7 37.31 129.46C56.95 129.06 70.47 116.23 72.87 107.38Z" fill="#0047A9"/>
<path d="M80.85 103.37C79.77 99.6 73.06 98.97 69.33 99.1C60.31 99.41 46.49 104.77 43.24 106.76C34.13 112.33 36.06 117.99 42.72 127.48C48.18 135.26 56.34 141.8 64.62 136.74C79.11 127.88 83.21 111.6 80.85 103.37Z" fill="#0047A9"/>
<path d="M84.94 96.66C82.36 94.07 77.06 96.47 74.33 98.2C67.73 102.37 59.92 112.72 58.42 115.74C54.22 124.22 58.32 127.97 67.74 132.78C75.47 136.72 84.63 138.48 88.45 130.78C95.12 117.29 90.56 102.3 84.94 96.66Z" fill="#0047A9"/>
<path d="M84.85 89.43C81.71 88.45 78.87 92.7 77.64 95.29C74.66 101.54 73.67 113.33 73.97 116.44C74.8 125.14 79.63 126.41 88.92 126.22C96.55 126.06 104.22 123.51 103.46 115.6C102.13 101.75 91.7 91.57 84.85 89.43Z" fill="#0047A9"/>
<path d="M81.39 83.61C78.59 84.18 78.46 88.86 78.75 91.49C79.45 97.85 84.24 107.85 85.92 110.24C90.62 116.94 94.82 115.87 101.68 111.68C107.31 108.24 111.85 102.84 107.58 96.75C100.09 86.1 87.52 82.37 81.39 83.61Z" fill="#0047A9"/>
<path d="M80.29 82.77C84.11 79.27 94.76 76.94 104.88 82.1C110.66 85.05 109.83 91.12 107.35 96.12C104.33 102.22 101.81 104.79 95.45 101.54C93.18 100.38 85.28 94.62 81.93 89.97C80.54 88.06 78.54 84.38 80.29 82.77Z" fill="#0047A9"/>
<path d="M46 76.26C50.84 81.13 60.83 76.61 65.97 73.36C78.39 65.52 93.09 46.04 95.91 40.34C103.81 24.39 96.1 17.32 78.37 8.28C63.82 0.859996 46.58 -2.45 39.41 12.04C26.83 37.43 35.42 65.63 46 76.26Z" fill="#3171CA"/>
<path d="M45.94 89.93C51.84 91.78 57.19 83.77 59.51 78.91C65.12 67.15 66.98 44.96 66.41 39.12C64.84 22.75 55.77 20.36 38.27 20.72C23.92 21.02 9.48 25.82 10.91 40.69C13.41 66.75 33.05 85.91 45.94 89.93Z" fill="#0047A9"/>
<path d="M46 76.26C50.84 81.13 60.83 76.61 65.97 73.36C78.39 65.52 93.09 46.04 95.91 40.34C103.81 24.39 96.1 17.32 78.37 8.28C63.82 0.859996 46.58 -2.45 39.41 12.04C26.83 37.43 35.42 65.63 46 76.26Z" fill="#0047A9"/>
<path d="M21.29 219.33L20.12 224.68C19.99 225.2 19.93 225.57 19.93 225.79C19.93 225.91 19.97 226.06 20.04 226.23C19.41 226.52 18.84 226.66 18.33 226.66C18 226.66 17.83 226.54 17.83 226.3C17.83 226.18 17.89 225.83 18.02 225.25L19.32 219.32H18.94C18.02 219.32 17.08 219.55 16.1 220.02C16.36 219.33 16.71 218.87 17.14 218.63C17.57 218.39 18.27 218.27 19.23 218.27H19.56L20.52 213.85C19.97 213.92 19.46 213.96 18.99 213.96C18.01 213.96 17.42 213.37 17.24 212.18C17.69 212.52 18.29 212.69 19.06 212.69C20.05 212.69 21.3 212.6 22.8 212.43L21.52 218.27H26.43C27.02 215.84 27.64 214.04 28.3 212.87C28.66 212.23 28.99 211.82 29.28 211.65C29.57 211.48 30.15 211.37 31.01 211.31C31.12 211.3 31.27 211.29 31.49 211.28C30.01 212.82 28.97 215.16 28.35 218.27H28.52C29.01 218.27 29.61 218.07 30.33 217.67C30.18 218.77 29.58 219.32 28.53 219.32H28.1C27.91 220.2 27.82 221.14 27.82 222.11C27.82 223.74 28.37 224.56 29.47 224.56C29.92 224.56 36.01 220.7 36.56 220.35C36.55 220.51 36.83 220.76 36.23 221.21C34.67 222.41 31.19 224.93 30.3 225.29C29.83 225.48 29.31 225.71 28.55 225.71C26.76 225.71 25.87 224.47 25.87 221.99C25.87 221.15 25.98 220.26 26.19 219.31H21.29V219.33Z" fill="#0047A9" stroke="#0047A9" stroke-width="0.0943" stroke-miterlimit="10"/>
<path d="M47.33 218.82C47.35 218.97 47.36 219.1 47.36 219.22C47.36 221.02 46.71 222.6 45.42 223.94C44.13 225.28 42.61 225.95 40.88 225.95C39.55 225.95 38.48 225.55 37.64 224.75C36.81 223.95 36.39 222.91 36.39 221.63C36.39 220.18 36.93 218.92 38.01 217.85C39.09 216.78 40.36 216.25 41.82 216.25C42.04 216.25 42.28 216.28 42.53 216.33C42.36 216.05 42.28 215.81 42.28 215.62C42.28 215.32 42.39 215.03 42.61 214.76C44.22 214.89 45.56 215.66 46.62 217.1C47.72 217.81 49.83 218.34 51.02 218.31C54.73 218.2 56.02 216.3 56.92 215.8L57.12 216.51C56.07 217.2 54.81 219.1 50.79 219.4C50.06 219.46 48.26 219.11 47.33 218.82ZM45.08 218.03C44.53 217.87 44.03 217.62 43.57 217.28C43.23 217.21 42.95 217.18 42.73 217.18C41.61 217.18 40.62 217.66 39.75 218.61C38.88 219.56 38.45 220.65 38.45 221.88C38.45 222.76 38.71 223.5 39.24 224.06C39.76 224.63 40.44 224.92 41.26 224.92C42.37 224.92 43.33 224.39 44.14 223.32C44.94 222.26 45.35 220.99 45.35 219.51C45.34 219 45.25 218.51 45.08 218.03Z" fill="#0047A9" stroke="#0047A9" stroke-width="0.0925" stroke-miterlimit="10"/>
<path d="M53.19 217.32C52.94 217.05 52.82 216.73 52.82 216.37C52.82 215.43 53.67 214.55 55.38 213.73C57.08 212.91 58.91 212.51 60.86 212.51C63.86 212.51 65.36 213.41 65.36 215.2C65.36 216.07 65.04 216.81 64.39 217.42C63.75 218.03 62.62 218.66 61.02 219.32C62.47 222.41 63.54 224.3 64.58 224.38C65.88 224.47 71.12 220.58 71.75 219.85C71.78 219.99 71.57 220.58 71.57 220.64C71.57 221.12 66.04 225.75 63.77 225.85C62.35 225.91 61.02 223.62 59.42 220C59.1 220.08 58.81 220.13 58.55 220.13C58.42 220.13 58.3 220.11 58.2 220.06C58.42 218.99 58.99 218.45 59.91 218.45C60.09 218.45 60.31 218.48 60.58 218.55C62.57 217.92 63.56 216.89 63.56 215.44C63.56 214.91 63.28 214.47 62.71 214.12C62.14 213.78 61.42 213.61 60.54 213.61C59.05 213.61 57.62 213.96 56.24 214.65C54.85 215.34 53.84 216.23 53.19 217.32ZM56.46 226.24C55.84 226.53 55.28 226.67 54.78 226.67C54.46 226.67 54.31 226.55 54.31 226.31C54.31 226.18 54.38 225.83 54.52 225.25L56.26 217.01C56.36 216.53 56.42 216.19 56.42 215.98C56.42 215.78 56.35 215.6 56.2 215.43C57.01 215.15 57.57 215 57.88 215C58.26 215 58.45 215.21 58.45 215.61C58.45 215.71 58.35 216.2 58.15 217.1L56.54 224.66C56.43 225.19 56.37 225.56 56.37 225.78C56.36 225.92 56.4 226.06 56.46 226.24Z" fill="#0047A9" stroke="#0047A9" stroke-width="0.093" stroke-miterlimit="10"/>
<path d="M73.06 221.82C73.06 223.65 73.92 224.57 75.64 224.56C77.85 224.54 82.24 221.64 84.37 220.25C86.22 219.04 87.27 218.31 88.37 217.63L88.13 218.24C87.17 219.55 87.72 218.76 84.21 221.38C82.09 222.96 77.68 225.92 74.84 225.96C73.59 225.98 72.6 225.6 71.88 224.87C71.15 224.15 70.79 223.16 70.79 221.9C70.79 220.09 71.45 218.54 72.76 217.26C74.07 215.97 75.66 215.33 77.51 215.33C78.4 215.33 79.12 215.53 79.66 215.94C80.2 216.35 80.47 216.89 80.47 217.57C80.47 218.69 79.72 219.67 78.23 220.54C76.72 221.39 75 221.82 73.06 221.82ZM73.14 220.92C74.59 220.85 75.83 220.48 76.87 219.8C77.91 219.12 78.43 218.34 78.43 217.45C78.43 216.65 78.03 216.26 77.24 216.26C76.3 216.26 75.43 216.71 74.63 217.62C73.83 218.53 73.34 219.63 73.14 220.92Z" fill="#0047A9" stroke="#0047A9" stroke-width="0.0949" stroke-miterlimit="10"/>
<path d="M103.06 217.19C103.17 217.44 102.12 218.51 102.12 218.65C102.12 218.8 98.61 221.95 98.61 221.95C98.61 221.95 96.07 224.11 95.06 224.67C93.79 225.38 92.49 225.73 91.15 225.73C89.69 225.73 88.53 225.31 87.69 224.46C86.84 223.62 86.42 222.46 86.42 220.99C86.42 218.67 87.18 216.68 88.72 215.01C90.25 213.34 92.08 212.51 94.21 212.51C95.08 212.51 95.81 212.66 96.4 212.97C96.99 213.28 97.29 213.65 97.29 214.1C97.29 214.5 97.03 214.93 96.52 215.41C95.83 214.04 94.85 213.36 93.58 213.36C92.19 213.36 90.98 214.08 89.95 215.51C88.92 216.94 88.4 218.61 88.4 220.52C88.4 221.74 88.71 222.7 89.33 223.41C89.95 224.12 90.79 224.48 91.84 224.48C93.54 224.48 97.11 222 97.11 222L103.34 217.19" fill="#0047A9"/>
<path d="M103.06 217.19C103.17 217.44 102.12 218.51 102.12 218.65C102.12 218.8 98.61 221.95 98.61 221.95C98.61 221.95 96.07 224.11 95.06 224.67C93.79 225.38 92.49 225.73 91.15 225.73C89.69 225.73 88.53 225.31 87.69 224.46C86.84 223.62 86.42 222.46 86.42 220.99C86.42 218.67 87.18 216.68 88.72 215.01C90.25 213.34 92.08 212.51 94.21 212.51C95.08 212.51 95.81 212.66 96.4 212.97C96.99 213.28 97.29 213.65 97.29 214.1C97.29 214.5 97.03 214.93 96.52 215.41C95.83 214.04 94.85 213.36 93.58 213.36C92.19 213.36 90.98 214.08 89.95 215.51C88.92 216.94 88.4 218.61 88.4 220.52C88.4 221.74 88.71 222.7 89.33 223.41C89.95 224.12 90.79 224.48 91.84 224.48C93.54 224.48 97.11 222 97.11 222L103.34 217.19" stroke="#0047A9" stroke-width="0.0903" stroke-miterlimit="10"/>
<path d="M109.02 220C108.15 221.65 107.08 223.06 105.81 224.22C104.54 225.38 103.43 225.96 102.49 225.96C101.77 225.96 101.2 225.66 100.77 225.07C100.34 224.48 100.13 223.69 100.13 222.72C100.13 220.77 100.77 219.05 102.05 217.56C103.33 216.07 104.82 215.33 106.51 215.33C107.53 215.33 108.64 215.62 109.83 216.21C110.01 215.63 110.72 215.34 111.98 215.34C112.06 215.34 112.19 215.34 112.38 215.35C111.99 215.89 111.7 216.64 111.5 217.58L111.33 218.37C111.13 219.26 111.04 220.29 111.04 221.48C111.04 222.85 111.39 223.56 112.08 223.53C113.49 223.47 117.61 220.61 119.16 218.61L119.58 218.88C118.33 220.94 113.93 224.96 111.17 225.26C109.72 225.42 108.98 224.14 108.98 221.89C108.96 221.42 108.98 220.79 109.02 220ZM109.5 217.76C108.08 216.9 106.89 216.48 105.95 216.48C104.93 216.48 104.04 217.05 103.3 218.2C102.56 219.35 102.18 220.7 102.18 222.27C102.18 223.53 102.63 224.16 103.52 224.16C104.49 224.16 106.34 222.2 109.08 218.28C109.12 218.24 109.25 218.06 109.5 217.76Z" fill="#0047A9" stroke="#0047A9" stroke-width="0.0937" stroke-miterlimit="10"/>
</svg>
