<?xml version="1.0" encoding="utf-8"?>
<svg version="1.1" x="0px" y="0px" width="226.77px" height="283.46px" viewBox="45.156 29.006 134.481 229.074" enable-background="new 0 0 226.77 283.46" xmlns="http://www.w3.org/2000/svg">
  <g>
    <g id="Слой_1"/>
    <g id="Слой_2">
      <g>
        <path fill="#3171CA" d="M49.71,183.3v4.09c0,0-0.03,0.21,0.13,0.19c1.45-0.15,3.69-3.7,3.8-4.24c0.01-0.06,0.16-0.18,0.16-0.18 h1.94h0.07c0,0,0.09,0.14,0.07,0.2c-1.48,3.22-3.42,4.45-3.89,4.6c-0.08,0.03-0.04,0.11-0.01,0.12c1.27,0.67,2.31,1.33,3.03,2.5 c0.54,0.89,0.96,1.72,1.35,2.91c0.02,0.06-0.08,0.17-0.08,0.17h-2.11c0,0-0.46-1.78-1.15-2.66c-1.59-2.01-3.01-1.99-3.17-1.92 c-0.16,0.07-0.13,0.2-0.13,0.2v4.18l-0.16,0.2H47.8l-0.18-0.2v-10.12l0.14-0.18h1.76L49.71,183.3z"/>
        <path fill="#3171CA" d="M69.72,190.86l-0.88,2.61l-0.22,0.2h-1.9l-0.08-0.18l3.6-10.16l0.2-0.15h2.41l0.21,0.17l3.63,10.11 l-0.07,0.22h-1.97l-0.22-0.15l-0.94-2.67l-0.2-0.16h-3.44L69.72,190.86z M73.04,189.06l-1.39-4.22l-0.12,0.01l-1.35,4.23 l0.08,0.17h2.68L73.04,189.06z"/>
        <path fill="#3171CA" d="M97.07,183.32v10.14l-0.13,0.2h-1.88l-0.11-0.16v-8.65l-0.13-0.12h-4.47l-0.09,0.15v8.65l-0.14,0.14 h-1.83l-0.15-0.14V183.3l0.1-0.13h8.65L97.07,183.32z"/>
        <path fill="#3171CA" d="M111.14,183.37v7.93l0.09,0.04l5.06-8.17h2l0.15,0.13v10.12l-0.13,0.25h-1.59l-0.16-0.16v-7.69 l-0.08-0.04l-4.88,7.89h-2.22l-0.14-0.18v-10.17l0.14-0.15l1.63,0.02L111.14,183.37z"/>
        <path fill="#3171CA" d="M132.71,184.77h-3.06l-0.13-0.16v-1.32l0.13-0.13h8.51l0.13,0.18v1.3l-0.11,0.13h-3.13l-0.11,0.14v8.6 l-0.14,0.16h-1.9l-0.08-0.16v-8.65L132.71,184.77z"/>
        <path fill="#3171CA" d="M170.85,183.3v3.93l0.11,0.14h4.67l0.13-0.21v-3.84l0.14-0.15h1.85l0.13,0.11v10.26l-0.13,0.14h-1.88 l-0.12-0.14v-4.33l-0.15-0.16h-4.65l-0.11,0.11v4.36l-0.11,0.16h-1.88l-0.13-0.2v-10.14l0.11-0.15h1.88L170.85,183.3z"/>
        <path fill="#3171CA" d="M150.32,190.86l-0.88,2.61l-0.22,0.2h-1.9l-0.07-0.18l3.6-10.16l0.2-0.15h2.41l0.21,0.17l3.64,10.11 l-0.07,0.22h-1.97l-0.22-0.15l-0.94-2.67l-0.2-0.16h-3.44L150.32,190.86z M153.64,189.06l-1.39-4.22l-0.12,0.01l-1.35,4.23 l0.08,0.17h2.68L153.64,189.06z"/>
      </g>
      <g>
        <path fill="#3171CA" d="M52.98,203.51v7.09l0.25,0.28h8.34l0.25-0.31v-7.12l0.2-0.17h4.91l0.24,0.23v19.28l-0.24,0.27h-4.86 l-0.26-0.27v-7.84l-0.19-0.17H53.2l-0.22,0.28v7.72l-0.26,0.27h-4.89l-0.24-0.27v-19.3l0.21-0.2h4.92L52.98,203.51z"/>
        <path fill="#3171CA" d="M97.92,214.69h-8.31l-0.18,0.2v4.23l0.24,0.27h9.27l0.25,0.21v3.22l-0.25,0.24H84.27l-0.23-0.3v-19.27 l0.23-0.2h14.05l0.37,0.25v3.13l-0.32,0.29h-8.73l-0.21,0.2v3.69l0.24,0.22h8.16l0.33,0.2v3.1v0.09L97.92,214.69z"/>
        <path fill="#3171CA" d="M134.66,207.68l-4.84,11.79l-0.44,0.4h-4.07l-0.4-0.47l-4.4-11.68l-0.22,0.04l-0.81,14.97l-0.27,0.32 h-4.51l-0.18-0.25l1.47-19.19l0.34-0.34h6.48l0.44,0.28l4.17,11.75l0.16-0.04l4.7-11.69l0.45-0.31h6.35l0.34,0.33l1.26,19.13 l-0.17,0.32h-4.85l-0.21-0.23l-0.54-15.1L134.66,207.68z"/>
        <path fill="#3171CA" d="M178.55,212.96c0,6.49-4.72,10.42-11.66,10.42c-7.04,0-11.16-4.43-11.16-10.07 c0-5.93,4.54-10.36,11.55-10.36C174.57,202.95,178.55,207.5,178.55,212.96z M161.4,213.22c0,3.88,2.18,6.6,5.78,6.6 c3.63,0,5.7-2.88,5.7-6.72c0-3.55-2.04-6.6-5.74-6.6C163.51,206.5,161.4,209.38,161.4,213.22z"/>
      </g>
      <line fill="none" stroke="#0047A9" stroke-width="1.6" stroke-miterlimit="10" x1="47.45" y1="233.26" x2="177.78" y2="233.26"/>
      <g>
        <path fill-rule="evenodd" clip-rule="evenodd" fill="#80AAE1" d="M126.29,111.77c3.82-3.5,14.47-5.83,24.59-0.67 c5.78,2.95,4.95,9.02,2.47,14.02c-3.02,6.1-5.54,8.67-11.9,5.42c-2.27-1.16-10.17-6.92-13.52-11.57 C126.54,117.06,124.54,113.38,126.29,111.77"/>
        <path fill-rule="evenodd" clip-rule="evenodd" fill="#80AAE1" d="M127.39,112.61c-2.8,0.57-2.93,5.25-2.64,7.88 c0.7,6.36,5.49,16.36,7.17,18.75c4.7,6.7,8.9,5.63,15.76,1.44c5.63-3.44,10.17-8.84,5.9-14.93 C146.09,115.1,133.52,111.37,127.39,112.61"/>
        <path fill-rule="evenodd" clip-rule="evenodd" fill="#80AAE1" d="M130.85,118.43c-3.14-0.98-5.98,3.27-7.21,5.86 c-2.98,6.25-3.97,18.04-3.67,21.15c0.83,8.7,5.66,9.97,14.95,9.78c7.63-0.16,15.3-2.71,14.54-10.62 C148.13,130.75,137.7,120.57,130.85,118.43"/>
        <path fill-rule="evenodd" clip-rule="evenodd" fill="#80AAE1" d="M130.94,125.66c-2.58-2.59-7.88-0.19-10.61,1.54 c-6.6,4.17-14.41,14.52-15.91,17.54c-4.2,8.48-0.1,12.23,9.32,17.04c7.73,3.94,16.89,5.7,20.71-2 C141.12,146.29,136.56,131.3,130.94,125.66"/>
        <path fill-rule="evenodd" clip-rule="evenodd" fill="#80AAE1" d="M126.85,132.37c-1.08-3.77-7.79-4.4-11.52-4.27 c-9.02,0.31-22.84,5.67-26.09,7.66c-9.11,5.57-7.18,11.23-0.52,20.72c5.46,7.78,13.62,14.32,21.9,9.26 C125.11,156.88,129.21,140.6,126.85,132.37"/>
        <path fill-rule="evenodd" clip-rule="evenodd" fill="#80AAE1" d="M118.87,136.38c1.09-4.06-5.26-8.23-9.07-10.12 c-9.22-4.56-26.16-7.01-30.56-6.92c-12.35,0.26-13.69,6.52-12.51,18.84c0.97,10.11,5.36,20.52,16.58,20.28 C102.95,158.06,116.47,145.23,118.87,136.38"/>
        <path fill-rule="evenodd" clip-rule="evenodd" fill="#80AAE1" d="M108.55,135.79c3.44-3.16-0.5-10.42-3.23-14.2 c-6.6-9.14-22.15-20.49-26.61-22.77c-12.52-6.38-17.49-1.33-23.44,10.68c-4.88,9.85-6.5,21.81,4.87,27.61 C80.07,147.27,101.03,142.68,108.55,135.79"/>
        <path fill-rule="evenodd" clip-rule="evenodd" fill="#80AAE1" d="M98.56,129.72c5.27-1.07,5.52-9.88,4.98-14.84 c-1.32-11.98-10.33-30.79-13.49-35.28C81.21,67,73.31,69,60.4,76.89c-10.59,6.47-19.13,16.64-11.09,28.09 C63.39,125.04,87.04,132.05,98.56,129.72"/>
        <path fill-rule="evenodd" clip-rule="evenodd" fill="#80AAE1" d="M91.94,118.93c5.9,1.85,11.25-6.16,13.57-11.02 c5.61-11.76,7.47-33.95,6.9-39.79c-1.57-16.37-10.64-18.76-28.14-18.4c-14.35,0.3-28.79,5.1-27.36,19.97 C59.41,95.75,79.05,114.91,91.94,118.93"/>
        <path fill-rule="evenodd" clip-rule="evenodd" fill="#80AAE1" d="M92,105.26c4.84,4.87,14.83,0.35,19.97-2.9 c12.42-7.84,27.12-27.32,29.94-33.02c7.9-15.95,0.19-23.02-17.54-32.06c-14.55-7.42-31.79-10.73-38.96,3.76 C72.83,66.43,81.42,94.63,92,105.26"/>
        <path fill-rule="evenodd" clip-rule="evenodd" fill="#80AAE1" d="M102.45,95.87c2.66,6.7,14.57,7.14,21.11,6.52 c15.81-1.5,39.04-12.64,44.36-16.58c14.91-11.02,10.39-21.06-3.22-37.53c-11.16-13.5-26.82-24.47-40.37-14.46 C100.61,51.38,96.65,81.24,102.45,95.87"/>
        <g>
          <path fill-rule="evenodd" clip-rule="evenodd" fill="#80AAE1" d="M112.49,90.26c0.02,5.47,9.1,8.81,14.34,10.04 c12.67,2.96,34.01,0.9,39.31-0.56c14.87-4.08,14.42-12.42,8.89-27.65c-4.53-12.49-13.31-24.32-26.82-20.61 C124.56,57.99,112.45,78.33,112.49,90.26"/>
        </g>
        <g>
          <defs>
            <path id="SVGID_1_" d="M108.55,135.79c3.44-3.16-0.5-10.42-3.23-14.2c-6.6-9.14-22.15-20.49-26.61-22.77 c-12.52-6.38-17.49-1.33-23.44,10.68c-4.88,9.85-6.5,21.81,4.87,27.61C80.07,147.27,101.03,142.68,108.55,135.79"/>
          </defs>
          <clipPath id="SVGID_2_">
            <path d="M108.55,135.79c3.44-3.16-0.5-10.42-3.23-14.2c-6.6-9.14-22.15-20.49-26.61-22.77 c-12.52-6.38-17.49-1.33-23.44,10.68c-4.88,9.85-6.5,21.81,4.87,27.61C80.07,147.27,101.03,142.68,108.55,135.79" transform="matrix(1, 0, 0, 1, 0, 0)" overflow="visible"/>
          </clipPath>
          <path clip-path="url(#SVGID_2_)" fill="#3171CA" d="M118.87,136.38c1.09-4.06-5.26-8.23-9.07-10.12 c-9.22-4.56-26.16-7.01-30.56-6.92c-12.35,0.26-13.69,6.52-12.51,18.84c0.97,10.11,5.36,20.52,16.58,20.28 C102.95,158.06,116.47,145.23,118.87,136.38"/>
        </g>
        <g>
          <defs>
            <path id="SVGID_3_" d="M118.87,136.38c1.09-4.06-5.26-8.23-9.07-10.12c-9.22-4.56-26.16-7.01-30.56-6.92 c-12.35,0.26-13.69,6.52-12.51,18.84c0.97,10.11,5.36,20.52,16.58,20.28C102.95,158.06,116.47,145.23,118.87,136.38"/>
          </defs>
          <clipPath id="SVGID_4_">
            <path d="M118.87,136.38c1.09-4.06-5.26-8.23-9.07-10.12c-9.22-4.56-26.16-7.01-30.56-6.92 c-12.35,0.26-13.69,6.52-12.51,18.84c0.97,10.11,5.36,20.52,16.58,20.28C102.95,158.06,116.47,145.23,118.87,136.38" transform="matrix(1, 0, 0, 1, 0, 0)" overflow="visible"/>
          </clipPath>
          <path clip-path="url(#SVGID_4_)" fill="#3171CA" d="M126.85,132.37c-1.08-3.77-7.79-4.4-11.52-4.27 c-9.02,0.31-22.84,5.67-26.09,7.66c-9.11,5.57-7.18,11.23-0.52,20.72c5.46,7.78,13.62,14.32,21.9,9.26 C125.11,156.88,129.21,140.6,126.85,132.37"/>
        </g>
        <g>
          <defs>
            <path id="SVGID_5_" d="M126.85,132.37c-1.08-3.77-7.79-4.4-11.52-4.27c-9.02,0.31-22.84,5.67-26.09,7.66 c-9.11,5.57-7.18,11.23-0.52,20.72c5.46,7.78,13.62,14.32,21.9,9.26C125.11,156.88,129.21,140.6,126.85,132.37"/>
          </defs>
          <clipPath id="SVGID_6_">
            <path d="M126.85,132.37c-1.08-3.77-7.79-4.4-11.52-4.27c-9.02,0.31-22.84,5.67-26.09,7.66 c-9.11,5.57-7.18,11.23-0.52,20.72c5.46,7.78,13.62,14.32,21.9,9.26C125.11,156.88,129.21,140.6,126.85,132.37" transform="matrix(1, 0, 0, 1, 0, 0)" overflow="visible"/>
          </clipPath>
          <path clip-path="url(#SVGID_6_)" fill="#3171CA" d="M130.94,125.66c-2.58-2.59-7.88-0.19-10.61,1.54 c-6.6,4.17-14.41,14.52-15.91,17.54c-4.2,8.48-0.1,12.23,9.32,17.04c7.73,3.94,16.89,5.7,20.71-2 C141.12,146.29,136.56,131.3,130.94,125.66"/>
        </g>
        <g>
          <defs>
            <path id="SVGID_7_" d="M130.94,125.66c-2.58-2.59-7.88-0.19-10.61,1.54c-6.6,4.17-14.41,14.52-15.91,17.54 c-4.2,8.48-0.1,12.23,9.32,17.04c7.73,3.94,16.89,5.7,20.71-2C141.12,146.29,136.56,131.3,130.94,125.66"/>
          </defs>
          <clipPath id="SVGID_8_">
            <path d="M130.94,125.66c-2.58-2.59-7.88-0.19-10.61,1.54c-6.6,4.17-14.41,14.52-15.91,17.54 c-4.2,8.48-0.1,12.23,9.32,17.04c7.73,3.94,16.89,5.7,20.71-2C141.12,146.29,136.56,131.3,130.94,125.66" transform="matrix(1, 0, 0, 1, 0, 0)" overflow="visible"/>
          </clipPath>
          <path clip-path="url(#SVGID_8_)" fill="#3171CA" d="M130.85,118.43c-3.14-0.98-5.98,3.27-7.21,5.86 c-2.98,6.25-3.97,18.04-3.67,21.15c0.83,8.7,5.66,9.97,14.95,9.78c7.63-0.16,15.3-2.71,14.54-10.62 C148.13,130.75,137.7,120.57,130.85,118.43"/>
        </g>
        <g>
          <defs>
            <path id="SVGID_9_" d="M130.85,118.43c-3.14-0.98-5.98,3.27-7.21,5.86c-2.98,6.25-3.97,18.04-3.67,21.15 c0.83,8.7,5.66,9.97,14.95,9.78c7.63-0.16,15.3-2.71,14.54-10.62C148.13,130.75,137.7,120.57,130.85,118.43"/>
          </defs>
          <clipPath id="SVGID_10_">
            <path d="M130.85,118.43c-3.14-0.98-5.98,3.27-7.21,5.86c-2.98,6.25-3.97,18.04-3.67,21.15 c0.83,8.7,5.66,9.97,14.95,9.78c7.63-0.16,15.3-2.71,14.54-10.62C148.13,130.75,137.7,120.57,130.85,118.43" transform="matrix(1, 0, 0, 1, 0, 0)" overflow="visible"/>
          </clipPath>
          <path clip-path="url(#SVGID_10_)" fill="#3171CA" d="M127.39,112.61c-2.8,0.57-2.93,5.25-2.64,7.88 c0.7,6.36,5.49,16.36,7.17,18.75c4.7,6.7,8.9,5.63,15.76,1.44c5.63-3.44,10.17-8.84,5.9-14.93 C146.09,115.1,133.52,111.37,127.39,112.61"/>
        </g>
        <g>
          <defs>
            <path id="SVGID_11_" d="M127.39,112.61c-2.8,0.57-2.93,5.25-2.64,7.88c0.7,6.36,5.49,16.36,7.17,18.75 c4.7,6.7,8.9,5.63,15.76,1.44c5.63-3.44,10.17-8.84,5.9-14.93C146.09,115.1,133.52,111.37,127.39,112.61"/>
          </defs>
          <clipPath id="SVGID_12_">
            <path d="M127.39,112.61c-2.8,0.57-2.93,5.25-2.64,7.88c0.7,6.36,5.49,16.36,7.17,18.75 c4.7,6.7,8.9,5.63,15.76,1.44c5.63-3.44,10.17-8.84,5.9-14.93C146.09,115.1,133.52,111.37,127.39,112.61" transform="matrix(1, 0, 0, 1, 0, 0)" overflow="visible"/>
          </clipPath>
          <path clip-path="url(#SVGID_12_)" fill="#3171CA" d="M126.29,111.77c3.82-3.5,14.47-5.83,24.59-0.67 c5.78,2.95,4.95,9.02,2.47,14.02c-3.02,6.1-5.54,8.67-11.9,5.42c-2.27-1.16-10.17-6.92-13.52-11.57 C126.54,117.06,124.54,113.38,126.29,111.77"/>
        </g>
        <g>
          <defs>
            <path id="SVGID_13_" d="M98.56,129.72c5.27-1.07,5.52-9.88,4.98-14.84c-1.32-11.98-10.33-30.79-13.49-35.28 C81.21,67,73.31,69,60.4,76.89c-10.59,6.47-19.13,16.64-11.09,28.09C63.39,125.04,87.04,132.05,98.56,129.72"/>
          </defs>
          <clipPath id="SVGID_14_">
            <path d="M98.56,129.72c5.27-1.07,5.52-9.88,4.98-14.84c-1.32-11.98-10.33-30.79-13.49-35.28 C81.21,67,73.31,69,60.4,76.89c-10.59,6.47-19.13,16.64-11.09,28.09C63.39,125.04,87.04,132.05,98.56,129.72" transform="matrix(1, 0, 0, 1, 0, 0)" overflow="visible"/>
          </clipPath>
          <path clip-path="url(#SVGID_14_)" fill="#3171CA" d="M108.55,135.79c3.44-3.16-0.5-10.42-3.23-14.2 c-6.6-9.14-22.15-20.49-26.61-22.77c-12.52-6.38-17.49-1.33-23.44,10.68c-4.88,9.85-6.5,21.81,4.87,27.61 C80.07,147.27,101.03,142.68,108.55,135.79"/>
        </g>
        <g>
          <defs>
            <path id="SVGID_15_" d="M91.94,118.93c5.9,1.85,11.25-6.16,13.57-11.02c5.61-11.76,7.47-33.95,6.9-39.79 c-1.57-16.37-10.64-18.76-28.14-18.4c-14.35,0.3-28.79,5.1-27.36,19.97C59.41,95.75,79.05,114.91,91.94,118.93"/>
          </defs>
          <clipPath id="SVGID_16_">
            <path d="M91.94,118.93c5.9,1.85,11.25-6.16,13.57-11.02c5.61-11.76,7.47-33.95,6.9-39.79 c-1.57-16.37-10.64-18.76-28.14-18.4c-14.35,0.3-28.79,5.1-27.36,19.97C59.41,95.75,79.05,114.91,91.94,118.93" transform="matrix(1, 0, 0, 1, 0, 0)" overflow="visible"/>
          </clipPath>
          <path clip-path="url(#SVGID_16_)" fill="#3171CA" d="M98.56,129.72c5.27-1.07,5.52-9.88,4.98-14.84 c-1.32-11.98-10.33-30.79-13.49-35.28C81.21,67,73.31,69,60.4,76.89c-10.59,6.47-19.13,16.64-11.09,28.09 C63.39,125.04,87.04,132.05,98.56,129.72"/>
        </g>
        <g>
          <defs>
            <path id="SVGID_17_" d="M92,105.26c4.84,4.87,14.83,0.35,19.97-2.9c12.42-7.84,27.12-27.32,29.94-33.02 c7.9-15.95,0.19-23.02-17.54-32.06c-14.55-7.42-31.79-10.73-38.96,3.76C72.83,66.43,81.42,94.63,92,105.26"/>
          </defs>
          <clipPath id="SVGID_18_">
            <path d="M92,105.26c4.84,4.87,14.83,0.35,19.97-2.9c12.42-7.84,27.12-27.32,29.94-33.02 c7.9-15.95,0.19-23.02-17.54-32.06c-14.55-7.42-31.79-10.73-38.96,3.76C72.83,66.43,81.42,94.63,92,105.26" transform="matrix(1, 0, 0, 1, 0, 0)" overflow="visible"/>
          </clipPath>
          <path clip-path="url(#SVGID_18_)" fill="#3171CA" d="M91.94,118.93c5.9,1.85,11.25-6.16,13.57-11.02 c5.61-11.76,7.47-33.95,6.9-39.79c-1.57-16.37-10.64-18.76-28.14-18.4c-14.35,0.3-28.79,5.1-27.36,19.97 C59.41,95.75,79.05,114.91,91.94,118.93"/>
        </g>
        <g>
          <defs>
            <path id="SVGID_19_" d="M112.49,90.26c0.02,5.47,9.1,8.81,14.34,10.04c12.67,2.96,34.01,0.9,39.31-0.56 c14.87-4.08,14.42-12.42,8.89-27.65c-4.53-12.49-13.31-24.32-26.82-20.61C124.56,57.99,112.45,78.33,112.49,90.26"/>
          </defs>
          <clipPath id="SVGID_20_">
            <path d="M112.49,90.26c0.02,5.47,9.1,8.81,14.34,10.04c12.67,2.96,34.01,0.9,39.31-0.56 c14.87-4.08,14.42-12.42,8.89-27.65c-4.53-12.49-13.31-24.32-26.82-20.61C124.56,57.99,112.45,78.33,112.49,90.26" transform="matrix(1, 0, 0, 1, 0, 0)" overflow="visible"/>
          </clipPath>
          <path clip-path="url(#SVGID_20_)" fill="#3171CA" d="M102.45,95.87c2.66,6.7,14.57,7.14,21.11,6.52 c15.81-1.5,39.04-12.64,44.36-16.58c14.91-11.02,10.39-21.06-3.22-37.53c-11.16-13.5-26.82-24.47-40.37-14.46 C100.61,51.38,96.65,81.24,102.45,95.87"/>
        </g>
        <g>
          <defs>
            <path id="SVGID_21_" d="M92,105.26c4.84,4.87,14.83,0.35,19.97-2.9c12.42-7.84,27.12-27.32,29.94-33.02 c7.9-15.95,0.19-23.02-17.54-32.06c-14.55-7.42-31.79-10.73-38.96,3.76C72.83,66.43,81.42,94.63,92,105.26"/>
          </defs>
          <clipPath id="SVGID_22_">
            <path d="M92,105.26c4.84,4.87,14.83,0.35,19.97-2.9c12.42-7.84,27.12-27.32,29.94-33.02 c7.9-15.95,0.19-23.02-17.54-32.06c-14.55-7.42-31.79-10.73-38.96,3.76C72.83,66.43,81.42,94.63,92,105.26" transform="matrix(1, 0, 0, 1, 0, 0)" overflow="visible"/>
          </clipPath>
          <path clip-path="url(#SVGID_22_)" fill="#0047A9" d="M98.56,129.72c5.27-1.07,5.52-9.88,4.98-14.84 c-1.32-11.98-10.33-30.79-13.49-35.28C81.21,67,73.31,69,60.4,76.89c-10.59,6.47-19.13,16.64-11.09,28.09 C63.39,125.04,87.04,132.05,98.56,129.72"/>
        </g>
        <g>
          <defs>
            <path id="SVGID_23_" d="M91.94,118.93c5.9,1.85,11.25-6.16,13.57-11.02c5.61-11.76,7.47-33.95,6.9-39.79 c-1.57-16.37-10.64-18.76-28.14-18.4c-14.35,0.3-28.79,5.1-27.36,19.97C59.41,95.75,79.05,114.91,91.94,118.93"/>
          </defs>
          <clipPath id="SVGID_24_">
            <path d="M91.94,118.93c5.9,1.85,11.25-6.16,13.57-11.02c5.61-11.76,7.47-33.95,6.9-39.79 c-1.57-16.37-10.64-18.76-28.14-18.4c-14.35,0.3-28.79,5.1-27.36,19.97C59.41,95.75,79.05,114.91,91.94,118.93" transform="matrix(1, 0, 0, 1, 0, 0)" overflow="visible"/>
          </clipPath>
          <path clip-path="url(#SVGID_24_)" fill="#0047A9" d="M108.55,135.79c3.44-3.16-0.5-10.42-3.23-14.2 c-6.6-9.14-22.15-20.49-26.61-22.77c-12.52-6.38-17.49-1.33-23.44,10.68c-4.88,9.85-6.5,21.81,4.87,27.61 C80.07,147.27,101.03,142.68,108.55,135.79"/>
        </g>
        <g>
          <defs>
            <path id="SVGID_25_" d="M98.56,129.72c5.27-1.07,5.52-9.88,4.98-14.84c-1.32-11.98-10.33-30.79-13.49-35.28 C81.21,67,73.31,69,60.4,76.89c-10.59,6.47-19.13,16.64-11.09,28.09C63.39,125.04,87.04,132.05,98.56,129.72"/>
          </defs>
          <clipPath id="SVGID_26_">
            <path d="M98.56,129.72c5.27-1.07,5.52-9.88,4.98-14.84c-1.32-11.98-10.33-30.79-13.49-35.28 C81.21,67,73.31,69,60.4,76.89c-10.59,6.47-19.13,16.64-11.09,28.09C63.39,125.04,87.04,132.05,98.56,129.72" transform="matrix(1, 0, 0, 1, 0, 0)" overflow="visible"/>
          </clipPath>
          <path clip-path="url(#SVGID_26_)" fill="#0047A9" d="M118.87,136.38c1.09-4.06-5.26-8.23-9.07-10.12 c-9.22-4.56-26.16-7.01-30.56-6.92c-12.35,0.26-13.69,6.52-12.51,18.84c0.97,10.11,5.36,20.52,16.58,20.28 C102.95,158.06,116.47,145.23,118.87,136.38"/>
        </g>
        <g>
          <defs>
            <path id="SVGID_27_" d="M108.55,135.79c3.44-3.16-0.5-10.42-3.23-14.2c-6.6-9.14-22.15-20.49-26.61-22.77 c-12.52-6.38-17.49-1.33-23.44,10.68c-4.88,9.85-6.5,21.81,4.87,27.61C80.07,147.27,101.03,142.68,108.55,135.79"/>
          </defs>
          <clipPath id="SVGID_28_">
            <path d="M108.55,135.79c3.44-3.16-0.5-10.42-3.23-14.2c-6.6-9.14-22.15-20.49-26.61-22.77 c-12.52-6.38-17.49-1.33-23.44,10.68c-4.88,9.85-6.5,21.81,4.87,27.61C80.07,147.27,101.03,142.68,108.55,135.79" transform="matrix(1, 0, 0, 1, 0, 0)" overflow="visible"/>
          </clipPath>
          <path clip-path="url(#SVGID_28_)" fill="#0047A9" d="M126.85,132.37c-1.08-3.77-7.79-4.4-11.52-4.27 c-9.02,0.31-22.84,5.67-26.09,7.66c-9.11,5.57-7.18,11.23-0.52,20.72c5.46,7.78,13.62,14.32,21.9,9.26 C125.11,156.88,129.21,140.6,126.85,132.37"/>
        </g>
        <g>
          <defs>
            <path id="SVGID_29_" d="M118.87,136.38c1.09-4.06-5.26-8.23-9.07-10.12c-9.22-4.56-26.16-7.01-30.56-6.92 c-12.35,0.26-13.69,6.52-12.51,18.84c0.97,10.11,5.36,20.52,16.58,20.28C102.95,158.06,116.47,145.23,118.87,136.38"/>
          </defs>
          <clipPath id="SVGID_30_">
            <path d="M118.87,136.38c1.09-4.06-5.26-8.23-9.07-10.12c-9.22-4.56-26.16-7.01-30.56-6.92 c-12.35,0.26-13.69,6.52-12.51,18.84c0.97,10.11,5.36,20.52,16.58,20.28C102.95,158.06,116.47,145.23,118.87,136.38" transform="matrix(1, 0, 0, 1, 0, 0)" overflow="visible"/>
          </clipPath>
          <path clip-path="url(#SVGID_30_)" fill="#0047A9" d="M130.94,125.66c-2.58-2.59-7.88-0.19-10.61,1.54 c-6.6,4.17-14.41,14.52-15.91,17.54c-4.2,8.48-0.1,12.23,9.32,17.04c7.73,3.94,16.89,5.7,20.71-2 C141.12,146.29,136.56,131.3,130.94,125.66"/>
        </g>
        <g>
          <defs>
            <path id="SVGID_31_" d="M126.85,132.37c-1.08-3.77-7.79-4.4-11.52-4.27c-9.02,0.31-22.84,5.67-26.09,7.66 c-9.11,5.57-7.18,11.23-0.52,20.72c5.46,7.78,13.62,14.32,21.9,9.26C125.11,156.88,129.21,140.6,126.85,132.37"/>
          </defs>
          <clipPath id="SVGID_32_">
            <path d="M126.85,132.37c-1.08-3.77-7.79-4.4-11.52-4.27c-9.02,0.31-22.84,5.67-26.09,7.66 c-9.11,5.57-7.18,11.23-0.52,20.72c5.46,7.78,13.62,14.32,21.9,9.26C125.11,156.88,129.21,140.6,126.85,132.37" transform="matrix(1, 0, 0, 1, 0, 0)" overflow="visible"/>
          </clipPath>
          <path clip-path="url(#SVGID_32_)" fill="#0047A9" d="M130.85,118.43c-3.14-0.98-5.98,3.27-7.21,5.86 c-2.98,6.25-3.97,18.04-3.67,21.15c0.83,8.7,5.66,9.97,14.95,9.78c7.63-0.16,15.3-2.71,14.54-10.62 C148.13,130.75,137.7,120.57,130.85,118.43"/>
        </g>
        <g>
          <defs>
            <path id="SVGID_33_" d="M130.94,125.66c-2.58-2.59-7.88-0.19-10.61,1.54c-6.6,4.17-14.41,14.52-15.91,17.54 c-4.2,8.48-0.1,12.23,9.32,17.04c7.73,3.94,16.89,5.7,20.71-2C141.12,146.29,136.56,131.3,130.94,125.66"/>
          </defs>
          <clipPath id="SVGID_34_">
            <path d="M130.94,125.66c-2.58-2.59-7.88-0.19-10.61,1.54c-6.6,4.17-14.41,14.52-15.91,17.54 c-4.2,8.48-0.1,12.23,9.32,17.04c7.73,3.94,16.89,5.7,20.71-2C141.12,146.29,136.56,131.3,130.94,125.66" transform="matrix(1, 0, 0, 1, 0, 0)" overflow="visible"/>
          </clipPath>
          <path clip-path="url(#SVGID_34_)" fill="#0047A9" d="M127.39,112.61c-2.8,0.57-2.93,5.25-2.64,7.88 c0.7,6.36,5.49,16.36,7.17,18.75c4.7,6.7,8.9,5.63,15.76,1.44c5.63-3.44,10.17-8.84,5.9-14.93 C146.09,115.1,133.52,111.37,127.39,112.61"/>
        </g>
        <g>
          <defs>
            <path id="SVGID_35_" d="M130.85,118.43c-3.14-0.98-5.98,3.27-7.21,5.86c-2.98,6.25-3.97,18.04-3.67,21.15 c0.83,8.7,5.66,9.97,14.95,9.78c7.63-0.16,15.3-2.71,14.54-10.62C148.13,130.75,137.7,120.57,130.85,118.43"/>
          </defs>
          <clipPath id="SVGID_36_">
            <path d="M130.85,118.43c-3.14-0.98-5.98,3.27-7.21,5.86c-2.98,6.25-3.97,18.04-3.67,21.15 c0.83,8.7,5.66,9.97,14.95,9.78c7.63-0.16,15.3-2.71,14.54-10.62C148.13,130.75,137.7,120.57,130.85,118.43" transform="matrix(1, 0, 0, 1, 0, 0)" overflow="visible"/>
          </clipPath>
          <path clip-path="url(#SVGID_36_)" fill="#0047A9" d="M126.29,111.77c3.82-3.5,14.47-5.83,24.59-0.67 c5.78,2.95,4.95,9.02,2.47,14.02c-3.02,6.1-5.54,8.67-11.9,5.42c-2.27-1.16-10.17-6.92-13.52-11.57 C126.54,117.06,124.54,113.38,126.29,111.77"/>
        </g>
        <g>
          <defs>
            <path id="SVGID_37_" d="M102.45,95.87c2.66,6.7,14.57,7.14,21.11,6.52c15.81-1.5,39.04-12.64,44.36-16.58 c14.91-11.02,10.39-21.06-3.22-37.53c-11.16-13.5-26.82-24.47-40.37-14.46C100.61,51.38,96.65,81.24,102.45,95.87"/>
          </defs>
          <clipPath id="SVGID_38_">
            <path d="M102.45,95.87c2.66,6.7,14.57,7.14,21.11,6.52c15.81-1.5,39.04-12.64,44.36-16.58 c14.91-11.02,10.39-21.06-3.22-37.53c-11.16-13.5-26.82-24.47-40.37-14.46C100.61,51.38,96.65,81.24,102.45,95.87" transform="matrix(1, 0, 0, 1, 0, 0)" overflow="visible"/>
          </clipPath>
          <path clip-path="url(#SVGID_38_)" fill="#3171CA" d="M92,105.26c4.84,4.87,14.83,0.35,19.97-2.9 c12.42-7.84,27.12-27.32,29.94-33.02c7.9-15.95,0.19-23.02-17.54-32.06c-14.55-7.42-31.79-10.73-38.96,3.76 C72.83,66.43,81.42,94.63,92,105.26"/>
        </g>
        <g>
          <defs>
            <path id="SVGID_39_" d="M102.45,95.87c2.66,6.7,14.57,7.14,21.11,6.52c15.81-1.5,39.04-12.64,44.36-16.58 c14.91-11.02,10.39-21.06-3.22-37.53c-11.16-13.5-26.82-24.47-40.37-14.46C100.61,51.38,96.65,81.24,102.45,95.87"/>
          </defs>
          <clipPath id="SVGID_40_">
            <path d="M102.45,95.87c2.66,6.7,14.57,7.14,21.11,6.52c15.81-1.5,39.04-12.64,44.36-16.58 c14.91-11.02,10.39-21.06-3.22-37.53c-11.16-13.5-26.82-24.47-40.37-14.46C100.61,51.38,96.65,81.24,102.45,95.87" transform="matrix(1, 0, 0, 1, 0, 0)" overflow="visible"/>
          </clipPath>
          <path clip-path="url(#SVGID_40_)" fill="#0047A9" d="M91.94,118.93c5.9,1.85,11.25-6.16,13.57-11.02 c5.61-11.76,7.47-33.95,6.9-39.79c-1.57-16.37-10.64-18.76-28.14-18.4c-14.35,0.3-28.79,5.1-27.36,19.97 C59.41,95.75,79.05,114.91,91.94,118.93"/>
        </g>
        <g>
          <defs>
            <path id="SVGID_41_" d="M112.49,90.26c0.02,5.47,9.1,8.81,14.34,10.04c12.67,2.96,34.01,0.9,39.31-0.56 c14.87-4.08,14.42-12.42,8.89-27.65c-4.53-12.49-13.31-24.32-26.82-20.61C124.56,57.99,112.45,78.33,112.49,90.26"/>
          </defs>
          <clipPath id="SVGID_42_">
            <path d="M112.49,90.26c0.02,5.47,9.1,8.81,14.34,10.04c12.67,2.96,34.01,0.9,39.31-0.56 c14.87-4.08,14.42-12.42,8.89-27.65c-4.53-12.49-13.31-24.32-26.82-20.61C124.56,57.99,112.45,78.33,112.49,90.26" transform="matrix(1, 0, 0, 1, 0, 0)" overflow="visible"/>
          </clipPath>
          <path clip-path="url(#SVGID_42_)" fill="#0047A9" d="M92,105.26c4.84,4.87,14.83,0.35,19.97-2.9 c12.42-7.84,27.12-27.32,29.94-33.02c7.9-15.95,0.19-23.02-17.54-32.06c-14.55-7.42-31.79-10.73-38.96,3.76 C72.83,66.43,81.42,94.63,92,105.26"/>
        </g>
      </g>
      <g>
        <path fill="#0047A9" stroke="#0047A9" stroke-width="0.0943" stroke-miterlimit="10" d="M67.29,248.33l-1.17,5.35 c-0.13,0.52-0.19,0.89-0.19,1.11c0,0.12,0.04,0.27,0.11,0.44c-0.63,0.29-1.2,0.43-1.71,0.43c-0.33,0-0.5-0.12-0.5-0.36 c0-0.12,0.06-0.47,0.19-1.05l1.3-5.93h-0.38c-0.92,0-1.86,0.23-2.84,0.7c0.26-0.69,0.61-1.15,1.04-1.39 c0.43-0.24,1.13-0.36,2.09-0.36h0.33l0.96-4.42c-0.55,0.07-1.06,0.11-1.53,0.11c-0.98,0-1.57-0.59-1.75-1.78 c0.45,0.34,1.05,0.51,1.82,0.51c0.99,0,2.24-0.09,3.74-0.26l-1.28,5.84h4.91c0.59-2.43,1.21-4.23,1.87-5.4 c0.36-0.64,0.69-1.05,0.98-1.22c0.29-0.17,0.87-0.28,1.73-0.34c0.11-0.01,0.26-0.02,0.48-0.03c-1.48,1.54-2.52,3.88-3.14,6.99 h0.17c0.49,0,1.09-0.2,1.81-0.6c-0.15,1.1-0.75,1.65-1.8,1.65H74.1c-0.19,0.88-0.28,1.82-0.28,2.79c0,1.63,0.55,2.45,1.65,2.45 c0.45,0,6.54-3.86,7.09-4.21c-0.01,0.16,0.27,0.41-0.33,0.86c-1.56,1.2-5.04,3.72-5.93,4.08c-0.47,0.19-0.99,0.42-1.75,0.42 c-1.79,0-2.68-1.24-2.68-3.72c0-0.84,0.11-1.73,0.32-2.68H67.29z"/>
        <path fill="#0047A9" stroke="#0047A9" stroke-width="0.0925" stroke-miterlimit="10" d="M93.33,247.82 c0.02,0.15,0.03,0.28,0.03,0.4c0,1.8-0.65,3.38-1.94,4.72c-1.29,1.34-2.81,2.01-4.54,2.01c-1.33,0-2.4-0.4-3.24-1.2 c-0.83-0.8-1.25-1.84-1.25-3.12c0-1.45,0.54-2.71,1.62-3.78c1.08-1.07,2.35-1.6,3.81-1.6c0.22,0,0.46,0.03,0.71,0.08 c-0.17-0.28-0.25-0.52-0.25-0.71c0-0.3,0.11-0.59,0.33-0.86c1.61,0.13,2.95,0.9,4.01,2.34c1.1,0.71,3.21,1.24,4.4,1.21 c3.71-0.11,5-2.01,5.9-2.51l0.2,0.71c-1.05,0.69-2.31,2.59-6.33,2.89C96.06,248.46,94.26,248.11,93.33,247.82 M91.08,247.03 c-0.55-0.16-1.05-0.41-1.51-0.75c-0.34-0.07-0.62-0.1-0.84-0.1c-1.12,0-2.11,0.48-2.98,1.43c-0.87,0.95-1.3,2.04-1.3,3.27 c0,0.88,0.26,1.62,0.79,2.18c0.52,0.57,1.2,0.86,2.02,0.86c1.11,0,2.07-0.53,2.88-1.6c0.8-1.06,1.21-2.33,1.21-3.81 C91.34,248,91.25,247.51,91.08,247.03"/>
        <path fill="#0047A9" stroke="#0047A9" stroke-width="0.093" stroke-miterlimit="10" d="M99.19,246.32 c-0.25-0.27-0.37-0.59-0.37-0.95c0-0.94,0.85-1.82,2.56-2.64c1.7-0.82,3.53-1.22,5.48-1.22c3,0,4.5,0.9,4.5,2.69 c0,0.87-0.32,1.61-0.97,2.22c-0.64,0.61-1.77,1.24-3.37,1.9c1.45,3.09,2.52,4.98,3.56,5.06c1.3,0.09,6.54-3.8,7.17-4.53 c0.03,0.14-0.18,0.73-0.18,0.79c0,0.48-5.53,5.11-7.8,5.21c-1.42,0.06-2.75-2.23-4.35-5.85c-0.32,0.08-0.61,0.13-0.87,0.13 c-0.13,0-0.25-0.02-0.35-0.07c0.22-1.07,0.79-1.61,1.71-1.61c0.18,0,0.4,0.03,0.67,0.1c1.99-0.63,2.98-1.66,2.98-3.11 c0-0.53-0.28-0.97-0.85-1.32c-0.57-0.34-1.29-0.51-2.17-0.51c-1.49,0-2.92,0.35-4.3,1.04 C100.85,244.34,99.84,245.23,99.19,246.32 M102.46,255.24c-0.62,0.29-1.18,0.43-1.68,0.43c-0.32,0-0.47-0.12-0.47-0.36 c0-0.13,0.07-0.48,0.21-1.06l1.74-8.24c0.1-0.48,0.16-0.82,0.16-1.03c0-0.2-0.07-0.38-0.22-0.55c0.81-0.28,1.37-0.43,1.68-0.43 c0.38,0,0.57,0.21,0.57,0.61c0,0.1-0.1,0.59-0.3,1.49l-1.61,7.56c-0.11,0.53-0.17,0.9-0.17,1.12 C102.36,254.92,102.4,255.06,102.46,255.24"/>
        <path fill="#0047A9" stroke="#0047A9" stroke-width="0.0949" stroke-miterlimit="10" d="M119.06,250.82 c0,1.83,0.86,2.75,2.58,2.74c2.21-0.02,6.6-2.92,8.73-4.31c1.85-1.21,2.9-1.94,4-2.62l-0.24,0.61 c-0.96,1.31-0.41,0.52-3.92,3.14c-2.12,1.58-6.53,4.54-9.37,4.58c-1.25,0.02-2.24-0.36-2.96-1.09 c-0.73-0.72-1.09-1.71-1.09-2.97c0-1.81,0.66-3.36,1.97-4.64c1.31-1.29,2.9-1.93,4.75-1.93c0.89,0,1.61,0.2,2.15,0.61 c0.54,0.41,0.81,0.95,0.81,1.63c0,1.12-0.75,2.1-2.24,2.97C122.72,250.39,121,250.82,119.06,250.82 M119.14,249.92 c1.45-0.07,2.69-0.44,3.73-1.12c1.04-0.68,1.56-1.46,1.56-2.35c0-0.8-0.4-1.19-1.19-1.19c-0.94,0-1.81,0.45-2.61,1.36 C119.83,247.53,119.34,248.63,119.14,249.92"/>
        <path fill="#0047A9" stroke="#0047A9" stroke-width="0.0903" stroke-miterlimit="10" d="M149.06,246.19 c0.11,0.25-0.94,1.32-0.94,1.46c0,0.15-3.51,3.3-3.51,3.3s-2.54,2.16-3.55,2.72c-1.27,0.71-2.57,1.06-3.91,1.06 c-1.46,0-2.62-0.42-3.46-1.27c-0.85-0.84-1.27-2-1.27-3.47c0-2.32,0.76-4.31,2.3-5.98c1.53-1.67,3.36-2.5,5.49-2.5 c0.87,0,1.6,0.15,2.19,0.46c0.59,0.31,0.89,0.68,0.89,1.13c0,0.4-0.26,0.83-0.77,1.31c-0.69-1.37-1.67-2.05-2.94-2.05 c-1.39,0-2.6,0.72-3.63,2.15c-1.03,1.43-1.55,3.1-1.55,5.01c0,1.22,0.31,2.18,0.93,2.89c0.62,0.71,1.46,1.07,2.51,1.07 c1.7,0,5.27-2.48,5.27-2.48l6.23-4.81"/>
        <path fill="#0047A9" stroke="#0047A9" stroke-width="0.0937" stroke-miterlimit="10" d="M155.02,249 c-0.87,1.65-1.94,3.06-3.21,4.22c-1.27,1.16-2.38,1.74-3.32,1.74c-0.72,0-1.29-0.3-1.72-0.89c-0.43-0.59-0.64-1.38-0.64-2.35 c0-1.95,0.64-3.67,1.92-5.16c1.28-1.49,2.77-2.23,4.46-2.23c1.02,0,2.13,0.29,3.32,0.88c0.18-0.58,0.89-0.87,2.15-0.87 c0.08,0,0.21,0,0.4,0.01c-0.39,0.54-0.68,1.29-0.88,2.23l-0.17,0.79c-0.2,0.89-0.29,1.92-0.29,3.11c0,1.37,0.35,2.08,1.04,2.05 c1.41-0.06,5.53-2.92,7.08-4.92l0.42,0.27c-1.25,2.06-5.65,6.08-8.41,6.38c-1.45,0.16-2.19-1.12-2.19-3.37 C154.96,250.42,154.98,249.79,155.02,249 M155.5,246.76c-1.42-0.86-2.61-1.28-3.55-1.28c-1.02,0-1.91,0.57-2.65,1.72 c-0.74,1.15-1.12,2.5-1.12,4.07c0,1.26,0.45,1.89,1.34,1.89c0.97,0,2.82-1.96,5.56-5.88 C155.12,247.24,155.25,247.06,155.5,246.76"/>
      </g>
      <path fill="#0047A9" stroke="#0047A9" stroke-width="0.9547" stroke-miterlimit="10" d="M125.21,242.12"/>
      <path fill="#0047A9" stroke="#0047A9" stroke-width="0.8593" stroke-miterlimit="10" d="M110.74,252.4"/>
    </g>
  </g>
</svg>